<?xml version="1.0" encoding="UTF-8"?>
<svg xmlns="http://www.w3.org/2000/svg" xmlns:xlink="http://www.w3.org/1999/xlink" width="970.445" height="477.017" viewBox="0 0 970.445 477.017">
<defs>
<g>
<g id="glyph-0-0">
<path d="M 7.421875 -4.578125 C 7.421875 -5.953125 7.421875 -9.40625 4.03125 -9.40625 C 0.625 -9.40625 0.625 -5.96875 0.625 -4.578125 C 0.625 -3.203125 0.625 0.171875 4.015625 0.171875 C 7.40625 0.171875 7.421875 -3.15625 7.421875 -4.578125 Z M 4.03125 -0.296875 C 3.578125 -0.296875 3.234375 -0.484375 2.9375 -0.78125 C 2.578125 -1.140625 2.359375 -1.375 2.359375 -4.75 C 2.359375 -5.75 2.359375 -6.671875 2.46875 -7.421875 C 2.671875 -8.828125 3.703125 -8.9375 4.015625 -8.9375 C 4.46875 -8.9375 5.359375 -8.71875 5.5625 -7.515625 C 5.6875 -6.78125 5.6875 -5.625 5.6875 -4.75 C 5.6875 -1.359375 5.484375 -1.15625 5.046875 -0.734375 C 4.765625 -0.4375 4.375 -0.296875 4.03125 -0.296875 Z M 4.03125 -0.296875 "/>
</g>
<g id="glyph-0-1">
<path d="M 4.96875 -9 C 4.96875 -9.40625 4.9375 -9.40625 4.46875 -9.40625 C 3.40625 -8.484375 1.828125 -8.484375 1.5 -8.484375 L 1.234375 -8.484375 L 1.234375 -7.875 L 1.5 -7.875 C 2.015625 -7.875 2.765625 -7.953125 3.34375 -8.140625 L 3.34375 -0.609375 L 1.34375 -0.609375 L 1.34375 0 C 1.953125 -0.03125 3.453125 -0.03125 4.125 -0.03125 C 4.8125 -0.03125 6.328125 -0.03125 6.921875 0 L 6.921875 -0.609375 L 4.96875 -0.609375 Z M 4.96875 -9 "/>
</g>
<g id="glyph-0-2">
<path d="M 7.25 -3.078125 L 6.640625 -3.078125 C 6.59375 -2.78125 6.5 -1.9375 6.28125 -1.796875 C 6.171875 -1.6875 5.046875 -1.6875 4.828125 -1.6875 L 2.609375 -1.6875 C 3.15625 -2.15625 4.453125 -3.234375 4.671875 -3.40625 C 6.265625 -4.59375 7.25 -5.328125 7.25 -6.703125 C 7.25 -8.390625 5.703125 -9.40625 3.8125 -9.40625 C 2.1875 -9.40625 0.796875 -8.484375 0.796875 -7.125 C 0.796875 -6.375 1.421875 -6.15625 1.75 -6.15625 C 2.1875 -6.15625 2.71875 -6.453125 2.71875 -7.109375 C 2.71875 -7.71875 2.265625 -8.015625 1.828125 -8.078125 C 2.390625 -8.734375 3.15625 -8.796875 3.453125 -8.796875 C 4.78125 -8.796875 5.40625 -7.71875 5.40625 -6.6875 C 5.40625 -5.5625 4.640625 -4.53125 4.0625 -3.921875 L 0.953125 -0.65625 C 0.796875 -0.53125 0.796875 -0.5 0.796875 -0.25 L 0.796875 0 L 6.828125 0 Z M 7.25 -3.078125 "/>
</g>
<g id="glyph-0-3">
<path d="M 3.75 -4.75 C 5.34375 -4.75 5.34375 -3.25 5.34375 -2.5625 C 5.34375 -1.921875 5.34375 -0.40625 3.796875 -0.40625 C 3.5 -0.40625 2.546875 -0.4375 1.859375 -0.9375 C 2.484375 -1.0625 2.703125 -1.5 2.703125 -1.9375 C 2.703125 -2.53125 2.28125 -2.9375 1.6875 -2.9375 C 1.09375 -2.9375 0.671875 -2.53125 0.671875 -1.921875 C 0.671875 -0.609375 2.109375 0.171875 3.875 0.171875 C 6.234375 0.171875 7.375 -1.140625 7.375 -2.5625 C 7.375 -3.265625 7.015625 -4.640625 4.796875 -5.015625 C 6.046875 -5.40625 6.921875 -6.296875 6.921875 -7.4375 C 6.921875 -8.5 5.890625 -9.40625 3.90625 -9.40625 C 2.296875 -9.40625 1.125 -8.5625 1.125 -7.40625 C 1.125 -6.6875 1.671875 -6.453125 2.046875 -6.453125 C 2.46875 -6.453125 2.96875 -6.734375 2.96875 -7.390625 C 2.96875 -7.71875 2.828125 -8.203125 2.15625 -8.3125 C 2.75 -8.890625 3.734375 -8.890625 3.8125 -8.890625 C 5.09375 -8.890625 5.09375 -7.90625 5.09375 -7.46875 C 5.09375 -7.046875 5.03125 -6.390625 4.578125 -5.796875 C 4.203125 -5.3125 3.828125 -5.28125 3.28125 -5.25 C 3.109375 -5.234375 2.828125 -5.21875 2.765625 -5.1875 C 2.6875 -5.15625 2.6875 -5.046875 2.6875 -4.984375 C 2.6875 -4.75 2.765625 -4.75 3.0625 -4.75 Z M 3.75 -4.75 "/>
</g>
<g id="glyph-0-4">
<path d="M 6.203125 -2.25 L 7.609375 -2.25 L 7.609375 -2.875 L 6.203125 -2.875 L 6.203125 -9.015625 C 6.203125 -9.375 6.203125 -9.4375 5.84375 -9.4375 C 5.578125 -9.4375 5.546875 -9.4375 5.375 -9.21875 L 0.4375 -2.875 L 0.4375 -2.25 L 4.515625 -2.25 L 4.515625 -0.609375 L 2.953125 -0.609375 L 2.953125 0 C 3.375 -0.03125 4.796875 -0.03125 5.3125 -0.03125 C 5.796875 -0.03125 7.21875 -0.03125 7.609375 0 L 7.609375 -0.609375 L 6.203125 -0.609375 Z M 4.640625 -7.4375 L 4.640625 -2.875 L 1.109375 -2.875 Z M 4.640625 -7.4375 "/>
</g>
<g id="glyph-0-5">
<path d="M 2.203125 -7.4375 C 2.703125 -7.328125 3.078125 -7.328125 3.296875 -7.328125 C 3.640625 -7.328125 4.453125 -7.328125 5.421875 -7.921875 C 5.859375 -8.1875 6.609375 -8.828125 6.609375 -9.171875 C 6.609375 -9.234375 6.609375 -9.40625 6.4375 -9.40625 C 6.421875 -9.40625 6.390625 -9.40625 6.25 -9.34375 C 5.59375 -9.109375 4.890625 -8.953125 4.09375 -8.953125 C 3.265625 -8.953125 2.578125 -9.109375 1.90625 -9.359375 C 1.8125 -9.375 1.765625 -9.40625 1.71875 -9.40625 C 1.546875 -9.40625 1.546875 -9.265625 1.546875 -9.015625 L 1.546875 -4.84375 C 1.546875 -4.578125 1.546875 -4.421875 1.84375 -4.421875 C 1.984375 -4.421875 2.015625 -4.4375 2.125 -4.578125 C 2.296875 -4.78125 2.8125 -5.40625 4.03125 -5.40625 C 5.34375 -5.40625 5.34375 -4.0625 5.34375 -2.921875 C 5.34375 -1.890625 5.34375 -0.40625 3.578125 -0.40625 C 3.0625 -0.40625 2.15625 -0.609375 1.65625 -1.421875 C 2.421875 -1.421875 2.609375 -2 2.609375 -2.3125 C 2.609375 -2.828125 2.234375 -3.21875 1.703125 -3.21875 C 1.28125 -3.21875 0.796875 -2.953125 0.796875 -2.28125 C 0.796875 -1.03125 1.9375 0.171875 3.640625 0.171875 C 5.859375 0.171875 7.25 -1.109375 7.25 -2.890625 C 7.25 -4.640625 6.046875 -5.875 4.09375 -5.875 C 3.515625 -5.875 2.828125 -5.765625 2.203125 -5.3125 Z M 2.203125 -7.4375 "/>
</g>
<g id="glyph-0-6">
<path d="M 2.5 -5.1875 C 2.5 -6.0625 2.53125 -6.953125 2.9375 -7.734375 C 3.25 -8.328125 3.984375 -8.890625 4.921875 -8.890625 C 5.1875 -8.890625 5.703125 -8.84375 6.046875 -8.484375 C 5.515625 -8.4375 5.28125 -8.03125 5.28125 -7.640625 C 5.28125 -7.125 5.671875 -6.796875 6.125 -6.796875 C 6.5 -6.796875 6.96875 -7.046875 6.96875 -7.671875 C 6.96875 -8.53125 6.390625 -9.40625 4.890625 -9.40625 C 3.09375 -9.40625 0.671875 -8.296875 0.671875 -4.546875 C 0.671875 -3.578125 0.671875 0.171875 4.078125 0.171875 C 5.96875 0.171875 7.375 -0.953125 7.375 -2.953125 C 7.375 -4.96875 5.984375 -6.03125 4.28125 -6.03125 C 3.984375 -6.03125 3.0625 -6.03125 2.5 -4.8125 Z M 4.0625 -0.40625 C 3.140625 -0.40625 2.78125 -1.171875 2.71875 -1.296875 C 2.53125 -1.765625 2.53125 -2.90625 2.53125 -3.046875 C 2.53125 -4.8125 3.28125 -5.546875 4.125 -5.546875 C 5.546875 -5.546875 5.546875 -4.40625 5.546875 -2.96875 C 5.546875 -1.546875 5.546875 -0.40625 4.0625 -0.40625 Z M 4.0625 -0.40625 "/>
</g>
<g id="glyph-0-7">
<path d="M 7.6875 -8.59375 C 7.8125 -8.734375 7.8125 -8.765625 7.8125 -9.234375 L 4.796875 -9.234375 C 4.6875 -9.234375 2.546875 -9.3125 2.375 -9.34375 C 2.015625 -9.390625 2 -9.546875 1.96875 -9.703125 L 1.359375 -9.703125 L 0.890625 -6.15625 L 1.484375 -6.15625 C 1.5 -6.296875 1.625 -7.296875 1.859375 -7.453125 C 2 -7.546875 3.1875 -7.546875 3.40625 -7.546875 L 6.015625 -7.546875 C 4.34375 -5.515625 4.15625 -5.296875 3.71875 -4.453125 C 2.875 -2.78125 2.734375 -1.484375 2.734375 -0.78125 C 2.734375 0.171875 3.46875 0.171875 3.578125 0.171875 C 3.9375 0.171875 4.140625 -0.015625 4.25 -0.109375 C 4.4375 -0.34375 4.4375 -0.515625 4.4375 -1.140625 C 4.4375 -3.34375 4.640625 -4.953125 5.53125 -6.03125 Z M 7.6875 -8.59375 "/>
</g>
<g id="glyph-0-8">
<path d="M 5.40625 -5.28125 C 6.125 -5.65625 6.921875 -6.1875 6.921875 -7.296875 C 6.921875 -8.78125 5.609375 -9.40625 4.046875 -9.40625 C 2.140625 -9.40625 1.125 -8.3125 1.125 -6.921875 C 1.125 -6.15625 1.5 -5.296875 2.5625 -4.734375 C 0.953125 -4.015625 0.671875 -3.03125 0.671875 -2.28125 C 0.671875 -0.625 2.109375 0.171875 4 0.171875 C 6.125 0.171875 7.375 -0.96875 7.375 -2.640625 C 7.375 -4.203125 6.140625 -4.875 5.40625 -5.28125 Z M 2.828125 -6.75 C 2.53125 -6.90625 2.140625 -7.25 2.140625 -7.71875 C 2.140625 -8.859375 3.671875 -8.890625 4 -8.890625 C 5.21875 -8.890625 5.90625 -8.25 5.90625 -7.296875 C 5.90625 -6.71875 5.65625 -6.09375 4.828125 -5.625 Z M 3.15625 -4.390625 L 5.140625 -3.25 C 5.609375 -2.984375 6.21875 -2.640625 6.21875 -1.90625 C 6.21875 -0.765625 5.078125 -0.40625 4.046875 -0.40625 C 2.625 -0.40625 1.828125 -1.15625 1.828125 -2.296875 C 1.828125 -3.34375 2.46875 -4 3.15625 -4.390625 Z M 3.15625 -4.390625 "/>
</g>
<g id="glyph-0-9">
<path d="M 5.546875 -4.046875 C 5.546875 -3.046875 5.546875 -0.40625 3.3125 -0.40625 C 2.875 -0.40625 2.359375 -0.515625 2.046875 -0.75 C 2.46875 -0.828125 2.765625 -1.140625 2.765625 -1.59375 C 2.765625 -2.109375 2.375 -2.4375 1.921875 -2.4375 C 1.546875 -2.4375 1.078125 -2.1875 1.078125 -1.5625 C 1.078125 -0.5625 1.859375 0.171875 3.34375 0.171875 C 5.15625 0.171875 7.375 -1.015625 7.375 -4.71875 C 7.375 -5.6875 7.375 -9.40625 4.0625 -9.40625 C 2.078125 -9.40625 0.671875 -8.265625 0.671875 -6.296875 C 0.671875 -4.296875 2.046875 -3.234375 3.765625 -3.234375 C 4.375 -3.234375 5.09375 -3.4375 5.546875 -4.453125 Z M 3.921875 -3.703125 C 2.5 -3.703125 2.5 -4.859375 2.5 -6.265625 C 2.5 -7.640625 2.5 -8.890625 4.0625 -8.890625 C 4.984375 -8.890625 5.3125 -8.078125 5.359375 -7.921875 C 5.515625 -7.484375 5.53125 -6.59375 5.53125 -6.125 C 5.53125 -5.125 5.125 -3.703125 3.921875 -3.703125 Z M 3.921875 -3.703125 "/>
</g>
<g id="glyph-1-0">
<path d="M 3.9375 -6.125 C 3.953125 -6.328125 3.953125 -6.671875 3.578125 -6.671875 C 3.359375 -6.671875 3.171875 -6.484375 3.21875 -6.296875 L 3.21875 -6.109375 L 3.40625 -3.890625 L 1.578125 -5.21875 C 1.453125 -5.296875 1.421875 -5.328125 1.3125 -5.328125 C 1.125 -5.328125 0.9375 -5.125 0.9375 -4.921875 C 0.9375 -4.6875 1.078125 -4.640625 1.21875 -4.5625 L 3.25 -3.578125 L 1.28125 -2.625 C 1.046875 -2.515625 0.9375 -2.453125 0.9375 -2.234375 C 0.9375 -2.015625 1.125 -1.84375 1.3125 -1.84375 C 1.421875 -1.84375 1.453125 -1.84375 1.8125 -2.109375 L 3.40625 -3.265625 L 3.203125 -0.859375 C 3.203125 -0.5625 3.453125 -0.484375 3.578125 -0.484375 C 3.75 -0.484375 3.953125 -0.59375 3.953125 -0.859375 L 3.75 -3.265625 L 5.578125 -1.9375 C 5.703125 -1.859375 5.734375 -1.84375 5.84375 -1.84375 C 6.03125 -1.84375 6.21875 -2.03125 6.21875 -2.234375 C 6.21875 -2.453125 6.09375 -2.53125 5.921875 -2.609375 C 5.0625 -3.046875 5.03125 -3.046875 3.90625 -3.578125 L 5.875 -4.53125 C 6.109375 -4.640625 6.21875 -4.703125 6.21875 -4.921875 C 6.21875 -5.140625 6.03125 -5.328125 5.84375 -5.328125 C 5.734375 -5.328125 5.703125 -5.328125 5.34375 -5.046875 L 3.75 -3.890625 Z M 3.9375 -6.125 "/>
</g>
<g id="glyph-2-0">
<path d="M 9.6875 -4.640625 C 9.890625 -4.640625 10.140625 -4.640625 10.140625 -4.90625 C 10.140625 -5.171875 9.890625 -5.171875 9.6875 -5.171875 L 1.234375 -5.171875 C 1.03125 -5.171875 0.78125 -5.171875 0.78125 -4.921875 C 0.78125 -4.640625 1.015625 -4.640625 1.234375 -4.640625 Z M 9.6875 -1.984375 C 9.890625 -1.984375 10.140625 -1.984375 10.140625 -2.234375 C 10.140625 -2.515625 9.890625 -2.515625 9.6875 -2.515625 L 1.234375 -2.515625 C 1.03125 -2.515625 0.78125 -2.515625 0.78125 -2.25 C 0.78125 -1.984375 1.015625 -1.984375 1.234375 -1.984375 Z M 9.6875 -1.984375 "/>
</g>
<g id="glyph-3-0">
<path d="M 8.953125 -2.75 L 9.890625 -2.75 L 9.890625 -3.265625 C 9.59375 -3.234375 8.3125 -3.234375 7.9375 -3.234375 C 7.203125 -3.234375 6.421875 -3.234375 5.6875 -3.265625 L 5.6875 -2.75 L 7.375 -2.75 L 7.375 -1.53125 C 7.375 -1.28125 7.375 -0.9375 6.890625 -0.640625 C 6.65625 -0.484375 6.28125 -0.375 5.78125 -0.375 C 5.109375 -0.375 3.921875 -0.53125 3.171875 -1.40625 C 2.71875 -1.953125 2.421875 -2.671875 2.421875 -4.109375 C 2.421875 -5.34375 2.625 -6.1875 3.171875 -6.8125 C 3.9375 -7.703125 5.125 -7.828125 5.703125 -7.828125 C 6.59375 -7.828125 8.046875 -7.328125 8.40625 -5.21875 C 8.421875 -5.109375 8.53125 -5.109375 8.671875 -5.109375 C 8.953125 -5.109375 8.953125 -5.140625 8.953125 -5.421875 L 8.953125 -8.03125 C 8.953125 -8.3125 8.953125 -8.34375 8.6875 -8.34375 L 7.796875 -7.484375 C 7.125 -8.0625 6.328125 -8.34375 5.4375 -8.34375 C 2.578125 -8.34375 0.734375 -6.609375 0.734375 -4.09375 C 0.734375 -1.640625 2.515625 0.140625 5.453125 0.140625 C 6.25 0.140625 7.203125 -0.03125 7.6875 -0.671875 C 8.09375 -0.28125 8.78125 0 8.8125 0 C 8.953125 0 8.953125 -0.125 8.953125 -0.3125 Z M 8.953125 -2.75 "/>
</g>
<g id="glyph-3-1">
<path d="M 3.296875 -3.640625 L 5.328125 -3.640625 C 7.328125 -3.640625 8.4375 -4.65625 8.4375 -5.890625 C 8.4375 -7.1875 7.296875 -8.203125 5.328125 -8.203125 L 0.453125 -8.203125 L 0.453125 -7.6875 L 1.71875 -7.6875 L 1.71875 -0.515625 L 0.453125 -0.515625 L 0.453125 0 C 0.796875 -0.03125 2.078125 -0.03125 2.515625 -0.03125 C 2.9375 -0.03125 4.21875 -0.03125 4.5625 0 L 4.5625 -0.515625 L 3.296875 -0.515625 Z M 4.90625 -7.6875 C 6.75 -7.6875 6.75 -6.703125 6.75 -5.890625 C 6.75 -5.109375 6.75 -4.09375 4.90625 -4.09375 L 3.234375 -4.09375 L 3.234375 -7.6875 Z M 4.90625 -7.6875 "/>
</g>
<g id="glyph-3-2">
<path d="M 8.609375 -7.328125 C 8.609375 -7.59375 8.625 -7.609375 8.921875 -7.65625 C 9.140625 -7.671875 9.390625 -7.6875 9.59375 -7.6875 L 9.875 -7.6875 L 9.875 -8.203125 C 9.59375 -8.171875 8.671875 -8.171875 8.328125 -8.171875 C 8 -8.171875 7.0625 -8.171875 6.796875 -8.203125 L 6.796875 -7.6875 L 7.0625 -7.6875 C 7.390625 -7.6875 7.40625 -7.6875 7.703125 -7.65625 C 8.046875 -7.609375 8.0625 -7.59375 8.0625 -7.328125 L 8.0625 -2.765625 C 8.0625 -1.0625 6.84375 -0.375 5.4375 -0.375 C 3.34375 -0.375 3.296875 -1.96875 3.296875 -2.671875 L 3.296875 -7.6875 L 4.5625 -7.6875 L 4.5625 -8.203125 C 4.21875 -8.171875 2.9375 -8.171875 2.515625 -8.171875 C 2.078125 -8.171875 0.796875 -8.171875 0.453125 -8.203125 L 0.453125 -7.6875 L 1.71875 -7.6875 L 1.71875 -2.75 C 1.71875 -1.171875 2.984375 0.140625 5.390625 0.140625 C 7.609375 0.140625 8.609375 -1.234375 8.609375 -2.734375 Z M 8.609375 -7.328125 "/>
</g>
<g id="glyph-3-3">
<path d="M 6.1875 -3.8125 C 6.1875 -4.953125 6.1875 -7.84375 3.359375 -7.84375 C 0.53125 -7.84375 0.53125 -4.96875 0.53125 -3.8125 C 0.53125 -2.671875 0.53125 0.140625 3.34375 0.140625 C 6.171875 0.140625 6.1875 -2.625 6.1875 -3.8125 Z M 3.359375 -0.25 C 2.96875 -0.25 2.6875 -0.40625 2.453125 -0.65625 C 2.15625 -0.953125 1.953125 -1.140625 1.953125 -3.953125 C 1.953125 -4.796875 1.953125 -5.5625 2.0625 -6.1875 C 2.21875 -7.359375 3.078125 -7.453125 3.34375 -7.453125 C 3.734375 -7.453125 4.46875 -7.265625 4.640625 -6.265625 C 4.75 -5.65625 4.75 -4.6875 4.75 -3.953125 C 4.75 -1.140625 4.5625 -0.96875 4.203125 -0.609375 C 3.96875 -0.375 3.640625 -0.25 3.359375 -0.25 Z M 3.359375 -0.25 "/>
</g>
<g id="glyph-3-4">
<path d="M 4.140625 -7.5 C 4.140625 -7.84375 4.109375 -7.84375 3.734375 -7.84375 C 2.84375 -7.078125 1.515625 -7.078125 1.25 -7.078125 L 1.03125 -7.078125 L 1.03125 -6.5625 L 1.25 -6.5625 C 1.671875 -6.5625 2.3125 -6.640625 2.78125 -6.796875 L 2.78125 -0.515625 L 1.125 -0.515625 L 1.125 0 C 1.625 -0.03125 2.875 -0.03125 3.4375 -0.03125 C 4 -0.03125 5.265625 -0.03125 5.765625 0 L 5.765625 -0.515625 L 4.140625 -0.515625 Z M 4.140625 -7.5 "/>
</g>
<g id="glyph-3-5">
<path d="M 6.03125 -2.5625 L 5.53125 -2.5625 C 5.5 -2.3125 5.421875 -1.609375 5.234375 -1.5 C 5.140625 -1.40625 4.203125 -1.40625 4.03125 -1.40625 L 2.171875 -1.40625 C 2.625 -1.796875 3.71875 -2.703125 3.890625 -2.828125 C 5.21875 -3.828125 6.03125 -4.4375 6.03125 -5.578125 C 6.03125 -7 4.75 -7.84375 3.171875 -7.84375 C 1.828125 -7.84375 0.671875 -7.078125 0.671875 -5.9375 C 0.671875 -5.3125 1.1875 -5.125 1.453125 -5.125 C 1.828125 -5.125 2.265625 -5.375 2.265625 -5.921875 C 2.265625 -6.4375 1.890625 -6.6875 1.515625 -6.734375 C 2 -7.28125 2.625 -7.328125 2.875 -7.328125 C 3.984375 -7.328125 4.5 -6.4375 4.5 -5.5625 C 4.5 -4.640625 3.875 -3.78125 3.375 -3.265625 L 0.78125 -0.546875 C 0.671875 -0.4375 0.671875 -0.421875 0.671875 -0.203125 L 0.671875 0 L 5.6875 0 Z M 6.03125 -2.5625 "/>
</g>
<g id="glyph-3-6">
<path d="M 3.125 -3.953125 C 4.453125 -3.953125 4.453125 -2.71875 4.453125 -2.140625 C 4.453125 -1.609375 4.453125 -0.328125 3.171875 -0.328125 C 2.921875 -0.328125 2.125 -0.375 1.546875 -0.78125 C 2.0625 -0.890625 2.25 -1.25 2.25 -1.609375 C 2.25 -2.109375 1.90625 -2.453125 1.40625 -2.453125 C 0.90625 -2.453125 0.5625 -2.109375 0.5625 -1.609375 C 0.5625 -0.5 1.75 0.140625 3.234375 0.140625 C 5.203125 0.140625 6.140625 -0.9375 6.140625 -2.140625 C 6.140625 -2.71875 5.84375 -3.859375 4 -4.1875 C 5.046875 -4.5 5.765625 -5.25 5.765625 -6.1875 C 5.765625 -7.09375 4.90625 -7.84375 3.25 -7.84375 C 1.90625 -7.84375 0.9375 -7.140625 0.9375 -6.171875 C 0.9375 -5.5625 1.40625 -5.375 1.703125 -5.375 C 2.0625 -5.375 2.46875 -5.609375 2.46875 -6.15625 C 2.46875 -6.4375 2.359375 -6.84375 1.796875 -6.921875 C 2.296875 -7.40625 3.109375 -7.40625 3.171875 -7.40625 C 4.25 -7.40625 4.25 -6.59375 4.25 -6.234375 C 4.25 -5.875 4.203125 -5.3125 3.8125 -4.828125 C 3.5 -4.421875 3.1875 -4.40625 2.734375 -4.375 C 2.59375 -4.359375 2.359375 -4.34375 2.3125 -4.328125 C 2.234375 -4.296875 2.234375 -4.203125 2.234375 -4.15625 C 2.234375 -3.953125 2.3125 -3.953125 2.546875 -3.953125 Z M 3.125 -3.953125 "/>
</g>
<g id="glyph-4-0">
<path d="M 7.1875 -16.703125 C 6.9375 -16.96875 6.90625 -17 6.421875 -17 L 0.9375 -17 L 0.9375 -15.9375 L 3.5625 -15.9375 L 3.5625 -1.8125 C 3.5625 -1.265625 3.546875 -1.234375 2.90625 -1.140625 C 2.453125 -1.09375 1.953125 -1.0625 1.515625 -1.0625 L 0.9375 -1.0625 L 0.9375 0 C 1.515625 -0.046875 3.4375 -0.046875 4.140625 -0.046875 C 4.828125 -0.046875 6.796875 -0.046875 7.359375 0 L 7.359375 -1.0625 L 6.796875 -1.0625 C 6.125 -1.0625 6.078125 -1.0625 5.484375 -1.140625 C 4.765625 -1.234375 4.734375 -1.265625 4.734375 -1.8125 L 4.734375 -15.09375 L 17 -0.328125 C 17.265625 -0.03125 17.296875 0 17.625 0 C 18.21875 0 18.21875 -0.15625 18.21875 -0.71875 L 18.21875 -15.1875 C 18.21875 -15.734375 18.234375 -15.765625 18.890625 -15.859375 C 19.328125 -15.90625 19.828125 -15.9375 20.265625 -15.9375 L 20.84375 -15.9375 L 20.84375 -17 C 20.265625 -16.953125 18.34375 -16.953125 17.640625 -16.953125 C 16.953125 -16.953125 15 -16.953125 14.421875 -17 L 14.421875 -15.9375 L 15 -15.9375 C 15.65625 -15.9375 15.71875 -15.9375 16.3125 -15.859375 C 17.03125 -15.765625 17.046875 -15.734375 17.046875 -15.1875 L 17.046875 -4.828125 Z M 7.1875 -16.703125 "/>
</g>
<g id="glyph-4-1">
<path d="M 13.140625 -5.421875 C 13.140625 -8.765625 10.859375 -11.21875 6.96875 -11.21875 C 2.921875 -11.21875 0.765625 -8.65625 0.765625 -5.421875 C 0.765625 -2.1875 3.046875 0.15625 6.9375 0.15625 C 10.984375 0.15625 13.140625 -2.296875 13.140625 -5.421875 Z M 6.96875 -0.75 C 3.734375 -0.75 3.734375 -3.640625 3.734375 -5.671875 C 3.734375 -6.84375 3.734375 -8.078125 4.21875 -8.96875 C 4.765625 -9.96875 5.875 -10.40625 6.9375 -10.40625 C 8.34375 -10.40625 9.25 -9.734375 9.671875 -9.046875 C 10.15625 -8.15625 10.15625 -6.859375 10.15625 -5.671875 C 10.15625 -3.625 10.15625 -0.75 6.96875 -0.75 Z M 6.96875 -0.75 "/>
</g>
<g id="glyph-4-2">
<path d="M 8.59375 -17 L 8.59375 -15.9375 C 10.140625 -15.9375 10.3125 -15.9375 10.3125 -14.96875 L 10.3125 -9.96875 C 9.765625 -10.4375 8.671875 -11.15625 6.96875 -11.15625 C 3.4375 -11.15625 0.9375 -8.96875 0.9375 -5.5 C 0.9375 -1.953125 3.390625 0.15625 6.6875 0.15625 C 8.046875 0.15625 9.21875 -0.328125 10.1875 -1.140625 L 10.1875 0.15625 L 14.59375 0 L 14.59375 -1.0625 C 13.0625 -1.0625 12.890625 -1.0625 12.890625 -2.03125 L 12.890625 -17.203125 Z M 10.1875 -2.5 C 9.140625 -0.984375 7.875 -0.671875 6.984375 -0.671875 C 3.921875 -0.671875 3.921875 -3.8125 3.921875 -5.453125 C 3.921875 -6.609375 3.921875 -7.859375 4.453125 -8.796875 C 5.234375 -10.1875 6.6875 -10.328125 7.265625 -10.328125 C 8.28125 -10.328125 9.375 -9.890625 10.1875 -8.796875 Z M 10.1875 -2.5 "/>
</g>
<g id="glyph-4-3">
<path d="M 11.203125 -5.484375 C 11.765625 -5.484375 11.921875 -5.484375 11.921875 -6.09375 C 11.921875 -6.84375 11.75 -8.703125 10.609375 -9.859375 C 9.5625 -10.90625 8.171875 -11.21875 6.734375 -11.21875 C 2.875 -11.21875 0.765625 -8.703125 0.765625 -5.578125 C 0.765625 -2.109375 3.328125 0.15625 7.0625 0.15625 C 10.796875 0.15625 11.921875 -2.484375 11.921875 -2.90625 C 11.921875 -3.265625 11.546875 -3.265625 11.40625 -3.265625 C 11 -3.265625 10.984375 -3.203125 10.828125 -2.875 C 10.1875 -1.265625 8.546875 -0.75 7.359375 -0.75 C 3.765625 -0.75 3.734375 -4.09375 3.734375 -5.484375 Z M 3.734375 -6.1875 C 3.796875 -7.21875 3.8125 -8.171875 4.34375 -9.0625 C 4.8125 -9.859375 5.671875 -10.40625 6.734375 -10.40625 C 9.390625 -10.40625 9.609375 -7.4375 9.640625 -6.1875 Z M 3.734375 -6.1875 "/>
</g>
<g id="glyph-5-0">
<path d="M 1.421875 -2.390625 C 1.421875 -2.859375 1.453125 -3.40625 1.703125 -3.75 C 2.046875 -4.234375 2.59375 -4.25 2.734375 -4.25 C 2.953125 -4.25 3.140625 -4.1875 3.234375 -4.109375 C 3.03125 -4.03125 2.90625 -3.859375 2.90625 -3.640625 C 2.90625 -3.375 3.09375 -3.15625 3.390625 -3.15625 C 3.671875 -3.15625 3.875 -3.359375 3.875 -3.65625 C 3.875 -4.078125 3.609375 -4.578125 2.71875 -4.578125 C 1.546875 -4.578125 0.390625 -3.859375 0.390625 -2.21875 C 0.390625 -1.28125 0.640625 0.078125 2.28125 0.078125 C 3.390625 0.078125 4.109375 -0.515625 4.109375 -1.4375 C 4.109375 -2.359375 3.390625 -2.921875 2.390625 -2.921875 C 2.25 -2.921875 1.765625 -2.921875 1.421875 -2.390625 Z M 2.265625 -0.265625 C 1.4375 -0.265625 1.4375 -1.09375 1.4375 -1.53125 C 1.4375 -2.03125 1.71875 -2.609375 2.328125 -2.609375 C 3.078125 -2.609375 3.078125 -2.078125 3.078125 -1.4375 C 3.078125 -0.796875 3.078125 -0.265625 2.265625 -0.265625 Z M 2.265625 -0.265625 "/>
</g>
<g id="glyph-5-1">
<path d="M 4.03125 -1.59375 L 3.59375 -1.59375 C 3.578125 -1.5 3.515625 -1.015625 3.390625 -0.984375 C 3.234375 -0.953125 2.828125 -0.953125 2.65625 -0.953125 L 1.703125 -0.953125 C 2.09375 -1.234375 2.484375 -1.53125 2.890625 -1.78125 C 3.453125 -2.140625 4.03125 -2.515625 4.03125 -3.21875 C 4.03125 -4.046875 3.234375 -4.578125 2.125 -4.578125 C 1.1875 -4.578125 0.46875 -4.203125 0.46875 -3.546875 C 0.46875 -3.140625 0.796875 -2.984375 1.015625 -2.984375 C 1.265625 -2.984375 1.546875 -3.15625 1.546875 -3.53125 C 1.546875 -3.875 1.296875 -4 1.28125 -4.015625 C 1.53125 -4.171875 1.84375 -4.1875 1.9375 -4.1875 C 2.515625 -4.1875 2.984375 -3.8125 2.984375 -3.203125 C 2.984375 -2.671875 2.625 -2.21875 2.21875 -1.875 L 0.5625 -0.390625 C 0.484375 -0.3125 0.46875 -0.3125 0.46875 -0.171875 L 0.46875 0 L 3.796875 0 Z M 4.03125 -1.59375 "/>
</g>
<g id="glyph-5-2">
<path d="M 3.125 -2.578125 C 3.625 -2.8125 3.859375 -3.140625 3.859375 -3.53125 C 3.859375 -4.578125 2.53125 -4.578125 2.265625 -4.578125 C 1.140625 -4.578125 0.640625 -4 0.640625 -3.328125 C 0.640625 -2.6875 1.25 -2.34375 1.3125 -2.296875 C 0.765625 -2.078125 0.390625 -1.71875 0.390625 -1.140625 C 0.390625 -0.015625 1.671875 0.078125 2.234375 0.078125 C 3.515625 0.078125 4.109375 -0.53125 4.109375 -1.3125 C 4.109375 -2.078125 3.421875 -2.421875 3.125 -2.578125 Z M 1.578125 -3.359375 C 1.34375 -3.484375 1.265625 -3.609375 1.265625 -3.75 C 1.265625 -4.09375 1.609375 -4.25 2.234375 -4.25 C 2.875 -4.25 3.234375 -4 3.234375 -3.53125 C 3.234375 -3.171875 3.03125 -2.953125 2.71875 -2.78125 Z M 1.765625 -2.078125 L 2.75 -1.578125 C 3.125 -1.390625 3.390625 -1.25 3.390625 -0.9375 C 3.390625 -0.390625 2.78125 -0.265625 2.265625 -0.265625 C 1.59375 -0.265625 1.109375 -0.546875 1.109375 -1.140625 C 1.109375 -1.5625 1.359375 -1.875 1.765625 -2.078125 Z M 1.765625 -2.078125 "/>
</g>
<g id="glyph-5-3">
<path d="M 2.78125 -4.328125 C 2.78125 -4.578125 2.734375 -4.578125 2.4375 -4.578125 C 2 -4.21875 1.4375 -4.125 0.875 -4.125 L 0.703125 -4.125 L 0.703125 -3.734375 L 0.875 -3.734375 C 1.15625 -3.734375 1.578125 -3.78125 1.875 -3.875 L 1.875 -0.390625 L 0.78125 -0.390625 L 0.78125 0 C 1.109375 -0.03125 1.953125 -0.03125 2.328125 -0.03125 C 2.578125 -0.03125 2.828125 -0.015625 3.078125 -0.015625 C 3.296875 -0.015625 3.65625 -0.015625 3.859375 0 L 3.859375 -0.390625 L 2.78125 -0.390625 Z M 2.78125 -4.328125 "/>
</g>
<g id="glyph-5-4">
<path d="M 4.125 -2.21875 C 4.125 -3.078125 4.03125 -4.578125 2.25 -4.578125 C 0.46875 -4.578125 0.375 -3.0625 0.375 -2.21875 C 0.375 -1.34375 0.484375 0.078125 2.25 0.078125 C 4.015625 0.078125 4.125 -1.328125 4.125 -2.21875 Z M 2.25 -0.234375 C 2.03125 -0.234375 1.8125 -0.3125 1.65625 -0.453125 C 1.46875 -0.625 1.34375 -0.71875 1.34375 -2.3125 C 1.34375 -2.78125 1.34375 -3.34375 1.421875 -3.671875 C 1.53125 -4.125 1.96875 -4.25 2.25 -4.25 C 2.515625 -4.25 2.96875 -4.140625 3.078125 -3.65625 C 3.15625 -3.328125 3.15625 -2.75 3.15625 -2.3125 C 3.15625 -1.8125 3.15625 -1.3125 3.09375 -0.921875 C 2.984375 -0.359375 2.515625 -0.234375 2.25 -0.234375 Z M 2.25 -0.234375 "/>
</g>
<g id="glyph-5-5">
<path d="M 2.109375 -2.265625 C 2.9375 -2.265625 2.96875 -1.640625 2.96875 -1.265625 C 2.96875 -0.96875 2.96875 -0.265625 2.125 -0.265625 C 1.9375 -0.265625 1.5 -0.3125 1.203125 -0.5 C 1.359375 -0.5625 1.53125 -0.71875 1.53125 -1.015625 C 1.53125 -1.34375 1.296875 -1.578125 0.96875 -1.578125 C 0.625 -1.578125 0.390625 -1.34375 0.390625 -1.015625 C 0.390625 -0.296875 1.171875 0.078125 2.15625 0.078125 C 3.609375 0.078125 4.109375 -0.671875 4.109375 -1.265625 C 4.109375 -1.796875 3.671875 -2.28125 2.890625 -2.453125 C 3.390625 -2.640625 3.859375 -3 3.859375 -3.578125 C 3.859375 -4.125 3.296875 -4.578125 2.1875 -4.578125 C 1.234375 -4.578125 0.640625 -4.109375 0.640625 -3.53125 C 0.640625 -3.171875 0.90625 -2.984375 1.171875 -2.984375 C 1.515625 -2.984375 1.703125 -3.25 1.703125 -3.515625 C 1.703125 -3.875 1.421875 -4 1.359375 -4.015625 C 1.640625 -4.21875 2 -4.25 2.140625 -4.25 C 2.828125 -4.25 2.828125 -3.796875 2.828125 -3.609375 C 2.828125 -3.28125 2.6875 -2.640625 2 -2.609375 C 1.8125 -2.59375 1.640625 -2.59375 1.609375 -2.578125 C 1.515625 -2.546875 1.515625 -2.46875 1.515625 -2.421875 C 1.515625 -2.265625 1.609375 -2.265625 1.734375 -2.265625 Z M 2.109375 -2.265625 "/>
</g>
<g id="glyph-5-6">
<path d="M 4.21875 -1.078125 L 4.21875 -1.46875 L 3.46875 -1.46875 L 3.46875 -4.375 C 3.46875 -4.578125 3.421875 -4.609375 3.21875 -4.609375 L 3.109375 -4.609375 C 2.984375 -4.609375 2.921875 -4.609375 2.84375 -4.515625 L 0.28125 -1.46875 L 0.28125 -1.078125 L 2.515625 -1.078125 L 2.515625 -0.390625 L 1.640625 -0.390625 L 1.640625 0 C 1.984375 -0.03125 2.609375 -0.03125 2.96875 -0.03125 C 3.125 -0.03125 4.046875 -0.015625 4.21875 0 L 4.21875 -0.390625 L 3.46875 -0.390625 L 3.46875 -1.078125 Z M 2.59375 -3.65625 L 2.59375 -1.46875 L 0.765625 -1.46875 Z M 2.59375 -3.65625 "/>
</g>
<g id="glyph-5-7">
<path d="M 3.078125 -2.109375 C 3.078125 -1.609375 3.046875 -1.109375 2.84375 -0.78125 C 2.640625 -0.4375 2.265625 -0.265625 1.875 -0.265625 C 1.8125 -0.265625 1.515625 -0.265625 1.296875 -0.40625 C 1.484375 -0.484375 1.59375 -0.640625 1.59375 -0.84375 C 1.59375 -1.109375 1.40625 -1.328125 1.109375 -1.328125 C 0.828125 -1.328125 0.625 -1.140625 0.625 -0.84375 C 0.625 -0.359375 0.96875 0.078125 1.875 0.078125 C 3.046875 0.078125 4.109375 -0.65625 4.109375 -2.28125 C 4.109375 -3.390625 3.765625 -4.578125 2.265625 -4.578125 C 1.125 -4.578125 0.390625 -3.96875 0.390625 -3.0625 C 0.390625 -2.125 1.125 -1.5625 2.109375 -1.5625 C 2.265625 -1.5625 2.71875 -1.5625 3.078125 -2.109375 Z M 2.1875 -1.890625 C 1.421875 -1.890625 1.421875 -2.421875 1.421875 -3.0625 C 1.421875 -3.671875 1.421875 -4.25 2.265625 -4.25 C 2.6875 -4.25 2.875 -3.984375 2.953125 -3.84375 C 3.0625 -3.625 3.0625 -3.03125 3.0625 -3.03125 C 3.0625 -2.3125 2.671875 -1.890625 2.1875 -1.890625 Z M 2.1875 -1.890625 "/>
</g>
<g id="glyph-5-8">
<path d="M 2.59375 -4.484375 C 2.4375 -4.5 2.265625 -4.515625 2.109375 -4.515625 L 1.625 -4.53125 C 1.578125 -4.53125 1.5625 -4.53125 1.515625 -4.53125 C 1.25 -4.53125 1.234375 -4.625 1.21875 -4.703125 L 0.78125 -4.703125 L 0.515625 -2.90625 L 0.96875 -2.90625 C 1.015625 -3.296875 1.109375 -3.484375 1.171875 -3.5 C 1.203125 -3.5 1.484375 -3.53125 1.96875 -3.53125 L 3.09375 -3.53125 C 2.90625 -3.328125 2.828125 -3.25 2.578125 -3 C 2.109375 -2.484375 1.53125 -1.515625 1.53125 -0.453125 C 1.53125 0.078125 1.96875 0.078125 2 0.078125 C 2.234375 0.078125 2.34375 -0.046875 2.390625 -0.078125 C 2.5 -0.203125 2.5 -0.28125 2.5 -0.75 C 2.5 -1.875 2.703125 -2.484375 3.109375 -2.90625 L 4.296875 -4.125 C 4.3125 -4.15625 4.328125 -4.171875 4.328125 -4.1875 C 4.34375 -4.21875 4.34375 -4.234375 4.34375 -4.484375 Z M 2.59375 -4.484375 "/>
</g>
<g id="glyph-6-0">
<path d="M 4.71875 -6.703125 C 4.609375 -6.953125 4.5 -6.953125 4.328125 -6.953125 C 4.046875 -6.953125 4 -6.875 3.9375 -6.703125 L 1.46875 -0.703125 C 1.40625 -0.546875 1.375 -0.46875 0.625 -0.46875 L 0.40625 -0.46875 L 0.40625 0 C 0.78125 -0.015625 1.265625 -0.03125 1.578125 -0.03125 C 1.96875 -0.03125 2.515625 -0.03125 2.890625 0 L 2.890625 -0.46875 C 2.875 -0.46875 2 -0.46875 2 -0.59375 C 2 -0.609375 2.03125 -0.703125 2.046875 -0.71875 L 2.546875 -1.921875 L 5.21875 -1.921875 L 5.8125 -0.46875 L 4.859375 -0.46875 L 4.859375 0 C 5.25 -0.03125 6.1875 -0.03125 6.625 -0.03125 C 7.015625 -0.03125 7.890625 -0.03125 8.25 0 L 8.25 -0.46875 L 7.28125 -0.46875 Z M 3.875 -5.15625 L 5.015625 -2.390625 L 2.734375 -2.390625 Z M 3.875 -5.15625 "/>
</g>
<g id="glyph-6-1">
<path d="M 2.234375 -6.921875 L 0.46875 -6.84375 L 0.46875 -6.375 C 1.09375 -6.375 1.15625 -6.375 1.15625 -5.984375 L 1.15625 -0.46875 L 0.46875 -0.46875 L 0.46875 0 C 0.78125 -0.015625 1.265625 -0.03125 1.6875 -0.03125 C 2.125 -0.03125 2.578125 -0.015625 2.921875 0 L 2.921875 -0.46875 L 2.234375 -0.46875 Z M 2.234375 -6.921875 "/>
</g>
<g id="glyph-6-2">
<path d="M 2.828125 -3.59375 L 2.828125 -6.375 L 4 -6.375 C 5.609375 -6.375 5.625 -5.59375 5.625 -4.984375 C 5.625 -4.421875 5.625 -3.59375 3.984375 -3.59375 Z M 5.484375 -3.390625 C 6.640625 -3.6875 7.140625 -4.34375 7.140625 -5 C 7.140625 -6 6.046875 -6.84375 4.171875 -6.84375 L 0.390625 -6.84375 L 0.390625 -6.375 L 1.46875 -6.375 L 1.46875 -0.46875 L 0.390625 -0.46875 L 0.390625 0 C 0.75 -0.03125 1.71875 -0.03125 2.140625 -0.03125 C 2.5625 -0.03125 3.53125 -0.03125 3.890625 0 L 3.890625 -0.46875 L 2.828125 -0.46875 L 2.828125 -3.234375 L 3.984375 -3.234375 C 4.125 -3.234375 4.5625 -3.234375 4.875 -2.90625 C 5.1875 -2.546875 5.1875 -2.359375 5.1875 -1.640625 C 5.1875 -0.984375 5.1875 -0.484375 5.890625 -0.15625 C 6.328125 0.0625 6.953125 0.109375 7.359375 0.109375 C 8.421875 0.109375 8.546875 -0.78125 8.546875 -0.953125 C 8.546875 -1.171875 8.40625 -1.171875 8.3125 -1.171875 C 8.109375 -1.171875 8.09375 -1.0625 8.078125 -0.9375 C 8.03125 -0.46875 7.75 -0.25 7.453125 -0.25 C 6.84375 -0.25 6.765625 -0.953125 6.703125 -1.375 C 6.6875 -1.484375 6.609375 -2.171875 6.59375 -2.21875 C 6.453125 -2.921875 5.90625 -3.234375 5.484375 -3.390625 Z M 5.484375 -3.390625 "/>
</g>
<g id="glyph-6-3">
<path d="M 4.609375 -2.171875 C 4.828125 -2.171875 4.921875 -2.171875 4.921875 -2.4375 C 4.921875 -2.75 4.859375 -3.484375 4.359375 -3.984375 C 4 -4.34375 3.46875 -4.515625 2.78125 -4.515625 C 1.1875 -4.515625 0.3125 -3.484375 0.3125 -2.25 C 0.3125 -0.90625 1.3125 0.0625 2.921875 0.0625 C 4.5 0.0625 4.921875 -1 4.921875 -1.171875 C 4.921875 -1.34375 4.734375 -1.34375 4.6875 -1.34375 C 4.515625 -1.34375 4.5 -1.296875 4.4375 -1.140625 C 4.234375 -0.65625 3.65625 -0.34375 3.015625 -0.34375 C 1.609375 -0.34375 1.59375 -1.671875 1.59375 -2.171875 Z M 1.59375 -2.5 C 1.609375 -2.890625 1.625 -3.3125 1.828125 -3.640625 C 2.09375 -4.03125 2.5 -4.15625 2.78125 -4.15625 C 3.953125 -4.15625 3.96875 -2.84375 3.984375 -2.5 Z M 1.59375 -2.5 "/>
</g>
<g id="glyph-6-4">
<path d="M 4.171875 -0.421875 L 4.171875 0.0625 L 5.984375 0 L 5.984375 -0.46875 C 5.375 -0.46875 5.296875 -0.46875 5.296875 -0.859375 L 5.296875 -6.921875 L 3.53125 -6.84375 L 3.53125 -6.375 C 4.15625 -6.375 4.234375 -6.375 4.234375 -5.984375 L 4.234375 -4.03125 C 3.734375 -4.421875 3.203125 -4.484375 2.875 -4.484375 C 1.421875 -4.484375 0.375 -3.609375 0.375 -2.203125 C 0.375 -0.890625 1.296875 0.0625 2.765625 0.0625 C 3.375 0.0625 3.859375 -0.171875 4.171875 -0.421875 Z M 4.171875 -3.515625 L 4.171875 -1.03125 C 4.03125 -0.84375 3.625 -0.296875 2.875 -0.296875 C 1.65625 -0.296875 1.65625 -1.5 1.65625 -2.203125 C 1.65625 -2.6875 1.65625 -3.21875 1.90625 -3.609375 C 2.203125 -4.03125 2.671875 -4.125 2.984375 -4.125 C 3.546875 -4.125 3.953125 -3.8125 4.171875 -3.515625 Z M 4.171875 -3.515625 "/>
</g>
<g id="glyph-6-5">
<path d="M 4.359375 -0.71875 L 4.359375 0.0625 L 6.125 0 L 6.125 -0.46875 C 5.515625 -0.46875 5.4375 -0.46875 5.4375 -0.859375 L 5.4375 -4.484375 L 3.625 -4.40625 L 3.625 -3.9375 C 4.234375 -3.9375 4.3125 -3.9375 4.3125 -3.546875 L 4.3125 -1.640625 C 4.3125 -0.828125 3.796875 -0.296875 3.078125 -0.296875 C 2.296875 -0.296875 2.265625 -0.546875 2.265625 -1.09375 L 2.265625 -4.484375 L 0.453125 -4.40625 L 0.453125 -3.9375 C 1.0625 -3.9375 1.140625 -3.9375 1.140625 -3.546875 L 1.140625 -1.21875 C 1.140625 -0.15625 1.9375 0.0625 2.9375 0.0625 C 3.1875 0.0625 3.90625 0.0625 4.359375 -0.71875 Z M 4.359375 -0.71875 "/>
</g>
<g id="glyph-6-6">
<path d="M 3.59375 -4.0625 C 3.40625 -3.890625 3.390625 -3.6875 3.390625 -3.59375 C 3.390625 -3.15625 3.734375 -2.96875 4 -2.96875 C 4.3125 -2.96875 4.640625 -3.1875 4.640625 -3.59375 C 4.640625 -4.453125 3.484375 -4.515625 2.90625 -4.515625 C 1.109375 -4.515625 0.375 -3.375 0.375 -2.21875 C 0.375 -0.890625 1.3125 0.0625 2.84375 0.0625 C 4.46875 0.0625 4.765625 -1.09375 4.765625 -1.171875 C 4.765625 -1.3125 4.625 -1.3125 4.53125 -1.3125 C 4.34375 -1.3125 4.34375 -1.28125 4.28125 -1.15625 C 4.03125 -0.53125 3.546875 -0.34375 3.046875 -0.34375 C 1.65625 -0.34375 1.65625 -1.796875 1.65625 -2.265625 C 1.65625 -2.828125 1.65625 -4.109375 2.9375 -4.109375 C 3.296875 -4.109375 3.453125 -4.09375 3.59375 -4.0625 Z M 3.59375 -4.0625 "/>
</g>
<g id="glyph-6-7">
<path d="M 3.78125 2.25 C 3.484375 1.96875 2.84375 1.359375 2.421875 0.09375 C 2.15625 -0.703125 2.046875 -1.609375 2.046875 -2.5 C 2.046875 -4.453125 2.546875 -6.015625 3.65625 -7.125 C 3.796875 -7.28125 3.8125 -7.28125 3.8125 -7.34375 C 3.8125 -7.453125 3.703125 -7.484375 3.625 -7.484375 C 3.453125 -7.484375 3.046875 -7.109375 2.859375 -6.9375 C 1.3125 -5.390625 1.078125 -3.5625 1.078125 -2.5 C 1.078125 -1.25 1.40625 -0.15625 1.875 0.671875 C 2.53125 1.8125 3.4375 2.484375 3.625 2.484375 C 3.703125 2.484375 3.8125 2.453125 3.8125 2.34375 C 3.8125 2.296875 3.78125 2.25 3.78125 2.25 Z M 3.78125 2.25 "/>
</g>
<g id="glyph-6-8">
<path d="M 4 -4.125 L 2.5625 -4.4375 C 2.15625 -4.53125 1.609375 -4.859375 1.609375 -5.46875 C 1.609375 -5.90625 1.890625 -6.515625 2.875 -6.515625 C 3.671875 -6.515625 4.6875 -6.1875 4.921875 -4.828125 C 4.953125 -4.578125 4.953125 -4.5625 5.15625 -4.5625 C 5.40625 -4.5625 5.40625 -4.609375 5.40625 -4.84375 L 5.40625 -6.671875 C 5.40625 -6.859375 5.40625 -6.953125 5.21875 -6.953125 C 5.140625 -6.953125 5.140625 -6.9375 5.03125 -6.84375 L 4.578125 -6.40625 C 4 -6.859375 3.34375 -6.953125 2.875 -6.953125 C 1.359375 -6.953125 0.640625 -5.984375 0.640625 -4.9375 C 0.640625 -4.296875 0.96875 -3.84375 1.171875 -3.625 C 1.671875 -3.125 2 -3.0625 3.09375 -2.828125 C 3.96875 -2.625 4.140625 -2.609375 4.359375 -2.390625 C 4.5 -2.25 4.75 -1.984375 4.75 -1.53125 C 4.75 -1.046875 4.5 -0.359375 3.453125 -0.359375 C 2.703125 -0.359375 1.1875 -0.5625 1.109375 -2.046875 C 1.09375 -2.21875 1.09375 -2.265625 0.875 -2.265625 C 0.640625 -2.265625 0.640625 -2.21875 0.640625 -1.984375 L 0.640625 -0.171875 C 0.640625 0.015625 0.640625 0.109375 0.8125 0.109375 C 0.90625 0.109375 0.921875 0.09375 1 0.015625 L 1.46875 -0.4375 C 2.125 0.046875 3.046875 0.109375 3.453125 0.109375 C 5.109375 0.109375 5.71875 -1.015625 5.71875 -2.03125 C 5.71875 -3.125 4.921875 -3.9375 4 -4.125 Z M 4 -4.125 "/>
</g>
<g id="glyph-6-9">
<path d="M 7.34375 -6.078125 C 7.34375 -6.296875 7.359375 -6.3125 7.640625 -6.34375 C 7.875 -6.375 7.890625 -6.375 8.171875 -6.375 L 8.421875 -6.375 L 8.421875 -6.84375 C 8.046875 -6.8125 7.484375 -6.8125 7.09375 -6.8125 C 6.671875 -6.8125 6.15625 -6.8125 5.734375 -6.84375 L 5.734375 -6.375 L 5.984375 -6.375 C 6.171875 -6.375 6.34375 -6.359375 6.515625 -6.34375 C 6.8125 -6.3125 6.8125 -6.296875 6.8125 -6.078125 L 6.8125 -2.328125 C 6.8125 -0.84375 5.734375 -0.359375 4.640625 -0.359375 C 2.90625 -0.359375 2.875 -1.671875 2.875 -2.21875 L 2.875 -6.375 L 3.953125 -6.375 L 3.953125 -6.84375 C 3.578125 -6.8125 2.609375 -6.8125 2.171875 -6.8125 C 1.75 -6.8125 0.765625 -6.8125 0.390625 -6.84375 L 0.390625 -6.375 L 1.46875 -6.375 L 1.46875 -2.296875 C 1.46875 -0.984375 2.546875 0.109375 4.609375 0.109375 C 6.5 0.109375 7.34375 -1.0625 7.34375 -2.28125 Z M 7.34375 -6.078125 "/>
</g>
<g id="glyph-6-10">
<path d="M 5.4375 -1.3125 L 3.046875 -6.59375 C 2.9375 -6.84375 2.828125 -6.84375 2.609375 -6.84375 L 0.40625 -6.84375 L 0.40625 -6.375 L 1.46875 -6.375 L 1.46875 -0.75 C 1.46875 -0.53125 1.46875 -0.53125 1.1875 -0.5 C 0.953125 -0.46875 0.921875 -0.46875 0.640625 -0.46875 L 0.40625 -0.46875 L 0.40625 0 C 0.78125 -0.03125 1.34375 -0.03125 1.734375 -0.03125 C 2.15625 -0.03125 2.671875 -0.03125 3.078125 0 L 3.078125 -0.46875 L 2.828125 -0.46875 C 2.65625 -0.46875 2.484375 -0.484375 2.296875 -0.5 C 2.015625 -0.53125 2 -0.53125 2 -0.75 L 2 -6.234375 L 2.015625 -6.234375 L 4.71875 -0.25 C 4.8125 -0.046875 4.9375 0 5.046875 0 C 5.25 0 5.328125 -0.15625 5.359375 -0.234375 L 8.140625 -6.375 L 8.15625 -6.375 L 8.15625 -0.46875 L 7.078125 -0.46875 L 7.078125 0 C 7.4375 -0.03125 8.359375 -0.03125 8.765625 -0.03125 C 9.1875 -0.03125 10.125 -0.03125 10.484375 0 L 10.484375 -0.46875 L 9.40625 -0.46875 L 9.40625 -6.375 L 10.484375 -6.375 L 10.484375 -6.84375 L 8.28125 -6.84375 C 8.0625 -6.84375 7.9375 -6.84375 7.828125 -6.59375 Z M 5.4375 -1.3125 "/>
</g>
<g id="glyph-6-11">
<path d="M 3.375 -2.5 C 3.375 -3.734375 3.046875 -4.828125 2.578125 -5.65625 C 1.90625 -6.8125 1 -7.484375 0.8125 -7.484375 C 0.734375 -7.484375 0.640625 -7.453125 0.640625 -7.34375 C 0.640625 -7.28125 0.640625 -7.265625 0.8125 -7.109375 C 2.0625 -5.828125 2.40625 -4.0625 2.40625 -2.5 C 2.40625 -0.53125 1.890625 1.03125 0.796875 2.140625 C 0.640625 2.28125 0.640625 2.296875 0.640625 2.34375 C 0.640625 2.453125 0.734375 2.484375 0.8125 2.484375 C 0.984375 2.484375 1.40625 2.109375 1.578125 1.9375 C 3.140625 0.40625 3.375 -1.4375 3.375 -2.5 Z M 3.375 -2.5 "/>
</g>
</g>
</defs>
<path fill-rule="nonzero" fill="rgb(49.412537%, 89.802551%, 52.549744%)" fill-opacity="1" stroke-width="0.29887" stroke-linecap="butt" stroke-linejoin="miter" stroke="rgb(0%, 0%, 0%)" stroke-opacity="1" stroke-miterlimit="10" d="M -15.590719 -10.968375 L 15.588969 -10.968375 L 15.588969 20.215219 L -15.590719 20.215219 Z M -15.590719 -10.968375 " transform="matrix(1, 0, 0, -1, 27.079, 227.391)"/>
<g fill="rgb(0%, 0%, 0%)" fill-opacity="1">
<use xlink:href="#glyph-0-0" x="23.044" y="227.391"/>
</g>
<path fill-rule="nonzero" fill="rgb(49.412537%, 89.802551%, 52.549744%)" fill-opacity="1" stroke-width="0.29887" stroke-linecap="butt" stroke-linejoin="miter" stroke="rgb(0%, 0%, 0%)" stroke-opacity="1" stroke-miterlimit="10" d="M -15.59025 -10.968375 L 15.589438 -10.968375 L 15.589438 20.215219 L -15.59025 20.215219 Z M -15.59025 -10.968375 " transform="matrix(1, 0, 0, -1, 58.559, 227.391)"/>
<g fill="rgb(0%, 0%, 0%)" fill-opacity="1">
<use xlink:href="#glyph-0-1" x="54.524" y="227.391"/>
</g>
<path fill-rule="nonzero" fill="rgb(49.412537%, 89.802551%, 52.549744%)" fill-opacity="1" stroke-width="0.29887" stroke-linecap="butt" stroke-linejoin="miter" stroke="rgb(0%, 0%, 0%)" stroke-opacity="1" stroke-miterlimit="10" d="M -15.589781 -10.968375 L 15.589906 -10.968375 L 15.589906 20.215219 L -15.589781 20.215219 Z M -15.589781 -10.968375 " transform="matrix(1, 0, 0, -1, 90.039, 227.391)"/>
<g fill="rgb(0%, 0%, 0%)" fill-opacity="1">
<use xlink:href="#glyph-0-2" x="86.004" y="227.391"/>
</g>
<path fill-rule="nonzero" fill="rgb(49.412537%, 89.802551%, 52.549744%)" fill-opacity="1" stroke-width="0.29887" stroke-linecap="butt" stroke-linejoin="miter" stroke="rgb(0%, 0%, 0%)" stroke-opacity="1" stroke-miterlimit="10" d="M -15.589312 -10.968375 L 15.590375 -10.968375 L 15.590375 20.215219 L -15.589312 20.215219 Z M -15.589312 -10.968375 " transform="matrix(1, 0, 0, -1, 121.519, 227.391)"/>
<g fill="rgb(0%, 0%, 0%)" fill-opacity="1">
<use xlink:href="#glyph-0-3" x="117.484" y="227.391"/>
</g>
<path fill-rule="nonzero" fill="rgb(49.412537%, 89.802551%, 52.549744%)" fill-opacity="1" stroke-width="0.29887" stroke-linecap="butt" stroke-linejoin="miter" stroke="rgb(0%, 0%, 0%)" stroke-opacity="1" stroke-miterlimit="10" d="M -15.590719 -10.968844 L 15.588969 -10.968844 L 15.588969 20.21475 L -15.590719 20.21475 Z M -15.590719 -10.968844 " transform="matrix(1, 0, 0, -1, 27.079, 258.871)"/>
<g fill="rgb(0%, 0%, 0%)" fill-opacity="1">
<use xlink:href="#glyph-0-4" x="23.044" y="258.871"/>
</g>
<path fill-rule="nonzero" fill="rgb(49.412537%, 89.802551%, 52.549744%)" fill-opacity="1" stroke-width="0.29887" stroke-linecap="butt" stroke-linejoin="miter" stroke="rgb(0%, 0%, 0%)" stroke-opacity="1" stroke-miterlimit="10" d="M -15.59025 -10.968844 L 15.589438 -10.968844 L 15.589438 20.21475 L -15.59025 20.21475 Z M -15.59025 -10.968844 " transform="matrix(1, 0, 0, -1, 58.559, 258.871)"/>
<g fill="rgb(0%, 0%, 0%)" fill-opacity="1">
<use xlink:href="#glyph-0-5" x="54.524" y="258.871"/>
</g>
<path fill-rule="nonzero" fill="rgb(49.412537%, 89.802551%, 52.549744%)" fill-opacity="1" stroke-width="0.29887" stroke-linecap="butt" stroke-linejoin="miter" stroke="rgb(0%, 0%, 0%)" stroke-opacity="1" stroke-miterlimit="10" d="M -15.589781 -10.968844 L 15.589906 -10.968844 L 15.589906 20.21475 L -15.589781 20.21475 Z M -15.589781 -10.968844 " transform="matrix(1, 0, 0, -1, 90.039, 258.871)"/>
<g fill="rgb(0%, 0%, 0%)" fill-opacity="1">
<use xlink:href="#glyph-0-6" x="86.004" y="258.871"/>
</g>
<path fill-rule="nonzero" fill="rgb(49.412537%, 89.802551%, 52.549744%)" fill-opacity="1" stroke-width="0.29887" stroke-linecap="butt" stroke-linejoin="miter" stroke="rgb(0%, 0%, 0%)" stroke-opacity="1" stroke-miterlimit="10" d="M -15.589312 -10.968844 L 15.590375 -10.968844 L 15.590375 20.21475 L -15.589312 20.21475 Z M -15.589312 -10.968844 " transform="matrix(1, 0, 0, -1, 121.519, 258.871)"/>
<g fill="rgb(0%, 0%, 0%)" fill-opacity="1">
<use xlink:href="#glyph-0-7" x="117.484" y="258.871"/>
</g>
<g fill="rgb(0%, 0%, 0%)" fill-opacity="1">
<use xlink:href="#glyph-1-0" x="149.482" y="241.846"/>
</g>
<path fill-rule="nonzero" fill="rgb(39.216614%, 62.745667%, 90.194702%)" fill-opacity="1" stroke-width="0.29887" stroke-linecap="butt" stroke-linejoin="miter" stroke="rgb(0%, 0%, 0%)" stroke-opacity="1" stroke-miterlimit="10" d="M -15.590656 -10.967906 L 15.589031 -10.967906 L 15.589031 20.211781 L -15.590656 20.211781 Z M -15.590656 -10.967906 " transform="matrix(1, 0, 0, -1, 184.618, 195.911)"/>
<g fill="rgb(0%, 0%, 0%)" fill-opacity="1">
<use xlink:href="#glyph-0-8" x="180.583" y="195.911"/>
</g>
<path fill-rule="nonzero" fill="rgb(39.216614%, 62.745667%, 90.194702%)" fill-opacity="1" stroke-width="0.29887" stroke-linecap="butt" stroke-linejoin="miter" stroke="rgb(0%, 0%, 0%)" stroke-opacity="1" stroke-miterlimit="10" d="M -15.590187 -10.967906 L 15.5895 -10.967906 L 15.5895 20.211781 L -15.590187 20.211781 Z M -15.590187 -10.967906 " transform="matrix(1, 0, 0, -1, 216.098, 195.911)"/>
<g fill="rgb(0%, 0%, 0%)" fill-opacity="1">
<use xlink:href="#glyph-0-1" x="208.029" y="195.911"/>
<use xlink:href="#glyph-0-2" x="216.098737" y="195.911"/>
</g>
<path fill-rule="nonzero" fill="rgb(39.216614%, 62.745667%, 90.194702%)" fill-opacity="1" stroke-width="0.29887" stroke-linecap="butt" stroke-linejoin="miter" stroke="rgb(0%, 0%, 0%)" stroke-opacity="1" stroke-miterlimit="10" d="M -15.590719 -10.967906 L 15.588969 -10.967906 L 15.588969 20.211781 L -15.590719 20.211781 Z M -15.590719 -10.967906 " transform="matrix(1, 0, 0, -1, 247.579, 195.911)"/>
<g fill="rgb(0%, 0%, 0%)" fill-opacity="1">
<use xlink:href="#glyph-0-1" x="239.509" y="195.911"/>
<use xlink:href="#glyph-0-6" x="247.578737" y="195.911"/>
</g>
<path fill-rule="nonzero" fill="rgb(39.216614%, 62.745667%, 90.194702%)" fill-opacity="1" stroke-width="0.29887" stroke-linecap="butt" stroke-linejoin="miter" stroke="rgb(0%, 0%, 0%)" stroke-opacity="1" stroke-miterlimit="10" d="M -15.59025 -10.967906 L 15.589438 -10.967906 L 15.589438 20.211781 L -15.59025 20.211781 Z M -15.59025 -10.967906 " transform="matrix(1, 0, 0, -1, 279.059, 195.911)"/>
<g fill="rgb(0%, 0%, 0%)" fill-opacity="1">
<use xlink:href="#glyph-0-2" x="270.989" y="195.911"/>
<use xlink:href="#glyph-0-0" x="279.058737" y="195.911"/>
</g>
<path fill-rule="nonzero" fill="rgb(39.216614%, 62.745667%, 90.194702%)" fill-opacity="1" stroke-width="0.29887" stroke-linecap="butt" stroke-linejoin="miter" stroke="rgb(0%, 0%, 0%)" stroke-opacity="1" stroke-miterlimit="10" d="M -15.590656 -10.968375 L 15.589031 -10.968375 L 15.589031 20.215219 L -15.590656 20.215219 Z M -15.590656 -10.968375 " transform="matrix(1, 0, 0, -1, 184.618, 227.391)"/>
<g fill="rgb(0%, 0%, 0%)" fill-opacity="1">
<use xlink:href="#glyph-0-9" x="180.584" y="227.391"/>
</g>
<path fill-rule="nonzero" fill="rgb(39.216614%, 62.745667%, 90.194702%)" fill-opacity="1" stroke-width="0.29887" stroke-linecap="butt" stroke-linejoin="miter" stroke="rgb(0%, 0%, 0%)" stroke-opacity="1" stroke-miterlimit="10" d="M -15.590187 -10.968375 L 15.5895 -10.968375 L 15.5895 20.215219 L -15.590187 20.215219 Z M -15.590187 -10.968375 " transform="matrix(1, 0, 0, -1, 216.098, 227.391)"/>
<g fill="rgb(0%, 0%, 0%)" fill-opacity="1">
<use xlink:href="#glyph-0-1" x="208.029" y="227.391"/>
<use xlink:href="#glyph-0-3" x="216.098737" y="227.391"/>
</g>
<path fill-rule="nonzero" fill="rgb(39.216614%, 62.745667%, 90.194702%)" fill-opacity="1" stroke-width="0.29887" stroke-linecap="butt" stroke-linejoin="miter" stroke="rgb(0%, 0%, 0%)" stroke-opacity="1" stroke-miterlimit="10" d="M -15.589719 -10.968375 L 15.589969 -10.968375 L 15.589969 20.215219 L -15.589719 20.215219 Z M -15.589719 -10.968375 " transform="matrix(1, 0, 0, -1, 247.578, 227.391)"/>
<g fill="rgb(0%, 0%, 0%)" fill-opacity="1">
<use xlink:href="#glyph-0-1" x="239.508" y="227.391"/>
<use xlink:href="#glyph-0-7" x="247.577737" y="227.391"/>
</g>
<path fill-rule="nonzero" fill="rgb(39.216614%, 62.745667%, 90.194702%)" fill-opacity="1" stroke-width="0.29887" stroke-linecap="butt" stroke-linejoin="miter" stroke="rgb(0%, 0%, 0%)" stroke-opacity="1" stroke-miterlimit="10" d="M -15.58925 -10.968375 L 15.590438 -10.968375 L 15.590438 20.215219 L -15.58925 20.215219 Z M -15.58925 -10.968375 " transform="matrix(1, 0, 0, -1, 279.058, 227.391)"/>
<g fill="rgb(0%, 0%, 0%)" fill-opacity="1">
<use xlink:href="#glyph-0-2" x="270.988" y="227.391"/>
<use xlink:href="#glyph-0-1" x="279.057737" y="227.391"/>
</g>
<path fill-rule="nonzero" fill="rgb(39.216614%, 62.745667%, 90.194702%)" fill-opacity="1" stroke-width="0.29887" stroke-linecap="butt" stroke-linejoin="miter" stroke="rgb(0%, 0%, 0%)" stroke-opacity="1" stroke-miterlimit="10" d="M -15.589656 -10.968844 L 15.590031 -10.968844 L 15.590031 20.21475 L -15.589656 20.21475 Z M -15.589656 -10.968844 " transform="matrix(1, 0, 0, -1, 184.617, 258.871)"/>
<g fill="rgb(0%, 0%, 0%)" fill-opacity="1">
<use xlink:href="#glyph-0-1" x="176.548" y="258.871"/>
<use xlink:href="#glyph-0-0" x="184.617737" y="258.871"/>
</g>
<path fill-rule="nonzero" fill="rgb(39.216614%, 62.745667%, 90.194702%)" fill-opacity="1" stroke-width="0.29887" stroke-linecap="butt" stroke-linejoin="miter" stroke="rgb(0%, 0%, 0%)" stroke-opacity="1" stroke-miterlimit="10" d="M -15.590187 -10.968844 L 15.5895 -10.968844 L 15.5895 20.21475 L -15.590187 20.21475 Z M -15.590187 -10.968844 " transform="matrix(1, 0, 0, -1, 216.098, 258.871)"/>
<g fill="rgb(0%, 0%, 0%)" fill-opacity="1">
<use xlink:href="#glyph-0-1" x="208.028" y="258.871"/>
<use xlink:href="#glyph-0-4" x="216.097737" y="258.871"/>
</g>
<path fill-rule="nonzero" fill="rgb(39.216614%, 62.745667%, 90.194702%)" fill-opacity="1" stroke-width="0.29887" stroke-linecap="butt" stroke-linejoin="miter" stroke="rgb(0%, 0%, 0%)" stroke-opacity="1" stroke-miterlimit="10" d="M -15.589719 -10.968844 L 15.589969 -10.968844 L 15.589969 20.21475 L -15.589719 20.21475 Z M -15.589719 -10.968844 " transform="matrix(1, 0, 0, -1, 247.578, 258.871)"/>
<g fill="rgb(0%, 0%, 0%)" fill-opacity="1">
<use xlink:href="#glyph-0-1" x="239.508" y="258.871"/>
<use xlink:href="#glyph-0-8" x="247.577737" y="258.871"/>
</g>
<path fill-rule="nonzero" fill="rgb(39.216614%, 62.745667%, 90.194702%)" fill-opacity="1" stroke-width="0.29887" stroke-linecap="butt" stroke-linejoin="miter" stroke="rgb(0%, 0%, 0%)" stroke-opacity="1" stroke-miterlimit="10" d="M -15.58925 -10.968844 L 15.590438 -10.968844 L 15.590438 20.21475 L -15.58925 20.21475 Z M -15.58925 -10.968844 " transform="matrix(1, 0, 0, -1, 279.058, 258.871)"/>
<g fill="rgb(0%, 0%, 0%)" fill-opacity="1">
<use xlink:href="#glyph-0-2" x="270.988" y="258.871"/>
<use xlink:href="#glyph-0-2" x="279.057737" y="258.871"/>
</g>
<path fill-rule="nonzero" fill="rgb(39.216614%, 62.745667%, 90.194702%)" fill-opacity="1" stroke-width="0.29887" stroke-linecap="butt" stroke-linejoin="miter" stroke="rgb(0%, 0%, 0%)" stroke-opacity="1" stroke-miterlimit="10" d="M -15.589656 -10.969313 L 15.590031 -10.969313 L 15.590031 20.214281 L -15.589656 20.214281 Z M -15.589656 -10.969313 " transform="matrix(1, 0, 0, -1, 184.617, 290.351)"/>
<g fill="rgb(0%, 0%, 0%)" fill-opacity="1">
<use xlink:href="#glyph-0-1" x="176.548" y="290.351"/>
<use xlink:href="#glyph-0-1" x="184.617737" y="290.351"/>
</g>
<path fill-rule="nonzero" fill="rgb(39.216614%, 62.745667%, 90.194702%)" fill-opacity="1" stroke-width="0.29887" stroke-linecap="butt" stroke-linejoin="miter" stroke="rgb(0%, 0%, 0%)" stroke-opacity="1" stroke-miterlimit="10" d="M -15.590187 -10.969313 L 15.5895 -10.969313 L 15.5895 20.214281 L -15.590187 20.214281 Z M -15.590187 -10.969313 " transform="matrix(1, 0, 0, -1, 216.098, 290.351)"/>
<g fill="rgb(0%, 0%, 0%)" fill-opacity="1">
<use xlink:href="#glyph-0-1" x="208.028" y="290.351"/>
<use xlink:href="#glyph-0-5" x="216.097737" y="290.351"/>
</g>
<path fill-rule="nonzero" fill="rgb(39.216614%, 62.745667%, 90.194702%)" fill-opacity="1" stroke-width="0.29887" stroke-linecap="butt" stroke-linejoin="miter" stroke="rgb(0%, 0%, 0%)" stroke-opacity="1" stroke-miterlimit="10" d="M -15.589719 -10.969313 L 15.589969 -10.969313 L 15.589969 20.214281 L -15.589719 20.214281 Z M -15.589719 -10.969313 " transform="matrix(1, 0, 0, -1, 247.578, 290.351)"/>
<g fill="rgb(0%, 0%, 0%)" fill-opacity="1">
<use xlink:href="#glyph-0-1" x="239.508" y="290.351"/>
<use xlink:href="#glyph-0-9" x="247.577737" y="290.351"/>
</g>
<path fill-rule="nonzero" fill="rgb(39.216614%, 62.745667%, 90.194702%)" fill-opacity="1" stroke-width="0.29887" stroke-linecap="butt" stroke-linejoin="miter" stroke="rgb(0%, 0%, 0%)" stroke-opacity="1" stroke-miterlimit="10" d="M -15.58925 -10.969313 L 15.590438 -10.969313 L 15.590438 20.214281 L -15.58925 20.214281 Z M -15.58925 -10.969313 " transform="matrix(1, 0, 0, -1, 279.058, 290.351)"/>
<g fill="rgb(0%, 0%, 0%)" fill-opacity="1">
<use xlink:href="#glyph-0-2" x="270.988" y="290.351"/>
<use xlink:href="#glyph-0-3" x="279.057737" y="290.351"/>
</g>
<g fill="rgb(0%, 0%, 0%)" fill-opacity="1">
<use xlink:href="#glyph-2-0" x="307.022" y="241.097"/>
</g>
<path fill-rule="nonzero" fill="rgb(70.588684%, 58.822632%, 90.194702%)" fill-opacity="1" stroke-width="0.29887" stroke-linecap="butt" stroke-linejoin="miter" stroke="rgb(0%, 0%, 0%)" stroke-opacity="1" stroke-miterlimit="10" d="M -21.259688 -16.637375 L 21.259844 -16.637375 L 21.259844 25.882156 L -21.259688 25.882156 Z M -21.259688 -16.637375 " transform="matrix(1, 0, 0, -1, 351.58, 221.722)"/>
<g fill="rgb(0%, 0%, 0%)" fill-opacity="1">
<use xlink:href="#glyph-0-6" x="343.51" y="221.722"/>
<use xlink:href="#glyph-0-2" x="351.579738" y="221.722"/>
</g>
<path fill-rule="nonzero" fill="rgb(70.588684%, 58.822632%, 90.194702%)" fill-opacity="1" stroke-width="0.29887" stroke-linecap="butt" stroke-linejoin="miter" stroke="rgb(0%, 0%, 0%)" stroke-opacity="1" stroke-miterlimit="10" d="M -21.261281 -16.637375 L 21.25825 -16.637375 L 21.25825 25.882156 L -21.261281 25.882156 Z M -21.261281 -16.637375 " transform="matrix(1, 0, 0, -1, 394.398, 221.722)"/>
<g fill="rgb(0%, 0%, 0%)" fill-opacity="1">
<use xlink:href="#glyph-0-8" x="386.329" y="221.722"/>
<use xlink:href="#glyph-0-6" x="394.398737" y="221.722"/>
</g>
<path fill-rule="nonzero" fill="rgb(70.588684%, 58.822632%, 90.194702%)" fill-opacity="1" stroke-width="0.29887" stroke-linecap="butt" stroke-linejoin="miter" stroke="rgb(0%, 0%, 0%)" stroke-opacity="1" stroke-miterlimit="10" d="M -21.259969 -16.637375 L 21.259562 -16.637375 L 21.259562 25.882156 L -21.259969 25.882156 Z M -21.259969 -16.637375 " transform="matrix(1, 0, 0, -1, 437.217, 221.722)"/>
<g fill="rgb(0%, 0%, 0%)" fill-opacity="1">
<use xlink:href="#glyph-0-1" x="425.112" y="221.722"/>
<use xlink:href="#glyph-0-1" x="433.181737" y="221.722"/>
<use xlink:href="#glyph-0-0" x="441.251475" y="221.722"/>
</g>
<path fill-rule="nonzero" fill="rgb(70.588684%, 58.822632%, 90.194702%)" fill-opacity="1" stroke-width="0.29887" stroke-linecap="butt" stroke-linejoin="miter" stroke="rgb(0%, 0%, 0%)" stroke-opacity="1" stroke-miterlimit="10" d="M -21.261563 -16.637375 L 21.261875 -16.637375 L 21.261875 25.882156 L -21.261563 25.882156 Z M -21.261563 -16.637375 " transform="matrix(1, 0, 0, -1, 480.035, 221.722)"/>
<g fill="rgb(0%, 0%, 0%)" fill-opacity="1">
<use xlink:href="#glyph-0-1" x="467.931" y="221.722"/>
<use xlink:href="#glyph-0-3" x="476.000738" y="221.722"/>
<use xlink:href="#glyph-0-4" x="484.070475" y="221.722"/>
</g>
<path fill-rule="nonzero" fill="rgb(70.588684%, 58.822632%, 90.194702%)" fill-opacity="1" stroke-width="0.29887" stroke-linecap="butt" stroke-linejoin="miter" stroke="rgb(0%, 0%, 0%)" stroke-opacity="1" stroke-miterlimit="10" d="M -21.259688 -16.635781 L 21.259844 -16.635781 L 21.259844 25.88375 L -21.259688 25.88375 Z M -21.259688 -16.635781 " transform="matrix(1, 0, 0, -1, 351.58, 264.54)"/>
<g fill="rgb(0%, 0%, 0%)" fill-opacity="1">
<use xlink:href="#glyph-0-2" x="339.475" y="264.54"/>
<use xlink:href="#glyph-0-1" x="347.544737" y="264.54"/>
<use xlink:href="#glyph-0-4" x="355.614475" y="264.54"/>
</g>
<path fill-rule="nonzero" fill="rgb(70.588684%, 58.822632%, 90.194702%)" fill-opacity="1" stroke-width="0.29887" stroke-linecap="butt" stroke-linejoin="miter" stroke="rgb(0%, 0%, 0%)" stroke-opacity="1" stroke-miterlimit="10" d="M -21.261281 -16.635781 L 21.25825 -16.635781 L 21.25825 25.88375 L -21.261281 25.88375 Z M -21.261281 -16.635781 " transform="matrix(1, 0, 0, -1, 394.398, 264.54)"/>
<g fill="rgb(0%, 0%, 0%)" fill-opacity="1">
<use xlink:href="#glyph-0-3" x="382.294" y="264.54"/>
<use xlink:href="#glyph-0-0" x="390.363738" y="264.54"/>
<use xlink:href="#glyph-0-2" x="398.433475" y="264.54"/>
</g>
<path fill-rule="nonzero" fill="rgb(70.588684%, 58.822632%, 90.194702%)" fill-opacity="1" stroke-width="0.29887" stroke-linecap="butt" stroke-linejoin="miter" stroke="rgb(0%, 0%, 0%)" stroke-opacity="1" stroke-miterlimit="10" d="M -21.259969 -16.635781 L 21.259562 -16.635781 L 21.259562 25.88375 L -21.259969 25.88375 Z M -21.259969 -16.635781 " transform="matrix(1, 0, 0, -1, 437.217, 264.54)"/>
<g fill="rgb(0%, 0%, 0%)" fill-opacity="1">
<use xlink:href="#glyph-0-3" x="425.112" y="264.54"/>
<use xlink:href="#glyph-0-9" x="433.181737" y="264.54"/>
<use xlink:href="#glyph-0-0" x="441.251475" y="264.54"/>
</g>
<path fill-rule="nonzero" fill="rgb(70.588684%, 58.822632%, 90.194702%)" fill-opacity="1" stroke-width="0.29887" stroke-linecap="butt" stroke-linejoin="miter" stroke="rgb(0%, 0%, 0%)" stroke-opacity="1" stroke-miterlimit="10" d="M -21.261563 -16.635781 L 21.261875 -16.635781 L 21.261875 25.88375 L -21.261563 25.88375 Z M -21.261563 -16.635781 " transform="matrix(1, 0, 0, -1, 480.035, 264.54)"/>
<g fill="rgb(0%, 0%, 0%)" fill-opacity="1">
<use xlink:href="#glyph-0-4" x="467.931" y="264.54"/>
<use xlink:href="#glyph-0-7" x="476.000738" y="264.54"/>
<use xlink:href="#glyph-0-8" x="484.070475" y="264.54"/>
</g>
<path fill-rule="nonzero" fill="rgb(84.999084%, 84.999084%, 84.999084%)" fill-opacity="1" stroke-width="0.79701" stroke-linecap="butt" stroke-linejoin="miter" stroke="rgb(0%, 0%, 0%)" stroke-opacity="1" stroke-miterlimit="10" d="M 874.458813 141.734625 L 469.181469 141.734625 C 463.677563 141.734625 459.216625 137.273687 459.216625 131.769781 L 459.216625 -301.851313 C 459.216625 -307.355219 463.677563 -311.816156 469.181469 -311.816156 L 874.458813 -311.816156 C 879.958813 -311.816156 884.41975 -307.355219 884.41975 -301.851313 L 884.41975 131.769781 C 884.41975 137.273687 879.958813 141.734625 874.458813 141.734625 Z M 874.458813 141.734625 " transform="matrix(1, 0, 0, -1, 74.299, 153.469)"/>
<path fill-rule="nonzero" fill="rgb(75%, 75%, 75%)" fill-opacity="1" stroke-width="0.3985" stroke-linecap="butt" stroke-linejoin="miter" stroke="rgb(0%, 0%, 0%)" stroke-opacity="1" stroke-miterlimit="10" d="M 626.712719 74.719 L 507.158031 74.719 C 498.908031 74.719 492.216625 68.0315 492.216625 59.777594 L 492.216625 -59.777094 C 492.216625 -68.031 498.908031 -74.722406 507.158031 -74.722406 L 626.712719 -74.722406 C 634.966625 -74.722406 641.658031 -68.031 641.658031 -59.777094 L 641.658031 59.777594 C 641.658031 68.0315 634.966625 74.719 626.712719 74.719 Z M 626.712719 74.719 " transform="matrix(1, 0, 0, -1, 74.299, 153.469)"/>
<path fill-rule="nonzero" fill="rgb(75%, 75%, 75%)" fill-opacity="1" stroke-width="0.3985" stroke-linecap="butt" stroke-linejoin="miter" stroke="rgb(0%, 0%, 0%)" stroke-opacity="1" stroke-miterlimit="10" d="M 833.247875 74.719 L 713.693188 74.719 C 705.439281 74.719 698.747875 68.0315 698.747875 59.777594 L 698.747875 -59.777094 C 698.747875 -68.031 705.439281 -74.722406 713.693188 -74.722406 L 833.247875 -74.722406 C 841.501781 -74.722406 848.189281 -68.031 848.189281 -59.777094 L 848.189281 59.777594 C 848.189281 68.0315 841.501781 74.719 833.247875 74.719 Z M 833.247875 74.719 " transform="matrix(1, 0, 0, -1, 74.299, 153.469)"/>
<path fill-rule="nonzero" fill="rgb(75%, 75%, 75%)" fill-opacity="1" stroke-width="0.3985" stroke-linecap="butt" stroke-linejoin="miter" stroke="rgb(0%, 0%, 0%)" stroke-opacity="1" stroke-miterlimit="10" d="M 626.712719 -131.81225 L 507.158031 -131.81225 C 498.908031 -131.81225 492.216625 -138.503656 492.216625 -146.757563 L 492.216625 -266.308344 C 492.216625 -274.56225 498.908031 -281.253656 507.158031 -281.253656 L 626.712719 -281.253656 C 634.966625 -281.253656 641.658031 -274.56225 641.658031 -266.308344 L 641.658031 -146.757563 C 641.658031 -138.503656 634.966625 -131.81225 626.712719 -131.81225 Z M 626.712719 -131.81225 " transform="matrix(1, 0, 0, -1, 74.299, 153.469)"/>
<path fill-rule="nonzero" fill="rgb(75%, 75%, 75%)" fill-opacity="1" stroke-width="0.3985" stroke-linecap="butt" stroke-linejoin="miter" stroke="rgb(0%, 0%, 0%)" stroke-opacity="1" stroke-miterlimit="10" d="M 833.247875 -131.81225 L 713.693188 -131.81225 C 705.439281 -131.81225 698.747875 -138.503656 698.747875 -146.757563 L 698.747875 -266.308344 C 698.747875 -274.56225 705.439281 -281.253656 713.693188 -281.253656 L 833.247875 -281.253656 C 841.501781 -281.253656 848.189281 -274.56225 848.189281 -266.308344 L 848.189281 -146.757563 C 848.189281 -138.503656 841.501781 -131.81225 833.247875 -131.81225 Z M 833.247875 -131.81225 " transform="matrix(1, 0, 0, -1, 74.299, 153.469)"/>
<g fill="rgb(0%, 0%, 0%)" fill-opacity="1">
<use xlink:href="#glyph-3-0" x="620.576" y="96.824"/>
<use xlink:href="#glyph-3-1" x="631.147983" y="96.824"/>
<use xlink:href="#glyph-3-2" x="640.335555" y="96.824"/>
</g>
<g fill="rgb(0%, 0%, 0%)" fill-opacity="1">
<use xlink:href="#glyph-3-3" x="655.15522" y="96.824"/>
</g>
<g fill="rgb(0%, 0%, 0%)" fill-opacity="1">
<use xlink:href="#glyph-3-0" x="827.107" y="96.824"/>
<use xlink:href="#glyph-3-1" x="837.678983" y="96.824"/>
<use xlink:href="#glyph-3-2" x="846.866555" y="96.824"/>
</g>
<g fill="rgb(0%, 0%, 0%)" fill-opacity="1">
<use xlink:href="#glyph-3-4" x="861.68622" y="96.824"/>
</g>
<g fill="rgb(0%, 0%, 0%)" fill-opacity="1">
<use xlink:href="#glyph-3-0" x="620.576" y="303.355"/>
<use xlink:href="#glyph-3-1" x="631.147983" y="303.355"/>
<use xlink:href="#glyph-3-2" x="640.335555" y="303.355"/>
</g>
<g fill="rgb(0%, 0%, 0%)" fill-opacity="1">
<use xlink:href="#glyph-3-5" x="655.15522" y="303.355"/>
</g>
<g fill="rgb(0%, 0%, 0%)" fill-opacity="1">
<use xlink:href="#glyph-3-0" x="827.107" y="303.355"/>
<use xlink:href="#glyph-3-1" x="837.678983" y="303.355"/>
<use xlink:href="#glyph-3-2" x="846.866555" y="303.355"/>
</g>
<g fill="rgb(0%, 0%, 0%)" fill-opacity="1">
<use xlink:href="#glyph-3-6" x="861.68622" y="303.355"/>
</g>
<g fill="rgb(0%, 0%, 0%)" fill-opacity="1">
<use xlink:href="#glyph-4-0" x="713.742" y="34.118"/>
<use xlink:href="#glyph-4-1" x="735.544733" y="34.118"/>
</g>
<g fill="rgb(0%, 0%, 0%)" fill-opacity="1">
<use xlink:href="#glyph-4-2" x="750.255877" y="34.118"/>
<use xlink:href="#glyph-4-3" x="765.747815" y="34.118"/>
</g>
<path fill-rule="nonzero" fill="rgb(70.588684%, 58.822632%, 90.194702%)" fill-opacity="1" stroke-width="0.09962" stroke-linecap="butt" stroke-linejoin="miter" stroke="rgb(0%, 0%, 0%)" stroke-opacity="1" stroke-miterlimit="10" d="M 520.447094 0.00025 L 543.693188 0.00025 L 543.693188 23.246344 L 520.447094 23.246344 Z M 520.447094 0.00025 " transform="matrix(1, 0, 0, -1, 74.299, 153.469)"/>
<g fill="rgb(0%, 0%, 0%)" fill-opacity="1">
<use xlink:href="#glyph-5-0" x="601.848" y="144.094"/>
<use xlink:href="#glyph-5-1" x="606.361443" y="144.094"/>
</g>
<path fill-rule="nonzero" fill="rgb(70.588684%, 58.822632%, 90.194702%)" fill-opacity="1" stroke-width="0.09962" stroke-linecap="butt" stroke-linejoin="miter" stroke="rgb(0%, 0%, 0%)" stroke-opacity="1" stroke-miterlimit="10" d="M 543.790844 0.00025 L 567.036938 0.00025 L 567.036938 23.246344 L 543.790844 23.246344 Z M 543.790844 0.00025 " transform="matrix(1, 0, 0, -1, 74.299, 153.469)"/>
<g fill="rgb(0%, 0%, 0%)" fill-opacity="1">
<use xlink:href="#glyph-5-2" x="625.192" y="144.094"/>
<use xlink:href="#glyph-5-0" x="629.705443" y="144.094"/>
</g>
<path fill-rule="nonzero" fill="rgb(70.588684%, 58.822632%, 90.194702%)" fill-opacity="1" stroke-width="0.09962" stroke-linecap="butt" stroke-linejoin="miter" stroke="rgb(0%, 0%, 0%)" stroke-opacity="1" stroke-miterlimit="10" d="M 567.134594 0.00025 L 590.380688 0.00025 L 590.380688 23.246344 L 567.134594 23.246344 Z M 567.134594 0.00025 " transform="matrix(1, 0, 0, -1, 74.299, 153.469)"/>
<g fill="rgb(0%, 0%, 0%)" fill-opacity="1">
<use xlink:href="#glyph-5-3" x="646.279" y="144.094"/>
<use xlink:href="#glyph-5-3" x="650.792443" y="144.094"/>
<use xlink:href="#glyph-5-4" x="655.305887" y="144.094"/>
</g>
<path fill-rule="nonzero" fill="rgb(70.588684%, 58.822632%, 90.194702%)" fill-opacity="1" stroke-width="0.09962" stroke-linecap="butt" stroke-linejoin="miter" stroke="rgb(0%, 0%, 0%)" stroke-opacity="1" stroke-miterlimit="10" d="M 590.48225 0.00025 L 613.724438 0.00025 L 613.724438 23.246344 L 590.48225 23.246344 Z M 590.48225 0.00025 " transform="matrix(1, 0, 0, -1, 74.299, 153.469)"/>
<g fill="rgb(0%, 0%, 0%)" fill-opacity="1">
<use xlink:href="#glyph-5-3" x="669.623" y="144.094"/>
<use xlink:href="#glyph-5-5" x="674.136443" y="144.094"/>
<use xlink:href="#glyph-5-6" x="678.649887" y="144.094"/>
</g>
<path fill-rule="nonzero" fill="rgb(70.588684%, 58.822632%, 90.194702%)" fill-opacity="1" stroke-width="0.09962" stroke-linecap="butt" stroke-linejoin="miter" stroke="rgb(0%, 0%, 0%)" stroke-opacity="1" stroke-miterlimit="10" d="M 520.447094 -23.3435 L 543.693188 -23.3435 L 543.693188 -0.101313 L 520.447094 -0.101313 Z M 520.447094 -23.3435 " transform="matrix(1, 0, 0, -1, 74.299, 153.469)"/>
<g fill="rgb(0%, 0%, 0%)" fill-opacity="1">
<use xlink:href="#glyph-5-1" x="599.592" y="167.438"/>
<use xlink:href="#glyph-5-3" x="604.105443" y="167.438"/>
<use xlink:href="#glyph-5-6" x="608.618887" y="167.438"/>
</g>
<path fill-rule="nonzero" fill="rgb(70.588684%, 58.822632%, 90.194702%)" fill-opacity="1" stroke-width="0.09962" stroke-linecap="butt" stroke-linejoin="miter" stroke="rgb(0%, 0%, 0%)" stroke-opacity="1" stroke-miterlimit="10" d="M 543.790844 -23.3435 L 567.036938 -23.3435 L 567.036938 -0.101313 L 543.790844 -0.101313 Z M 543.790844 -23.3435 " transform="matrix(1, 0, 0, -1, 74.299, 153.469)"/>
<g fill="rgb(0%, 0%, 0%)" fill-opacity="1">
<use xlink:href="#glyph-5-5" x="622.935" y="167.438"/>
<use xlink:href="#glyph-5-4" x="627.448443" y="167.438"/>
<use xlink:href="#glyph-5-1" x="631.961887" y="167.438"/>
</g>
<path fill-rule="nonzero" fill="rgb(70.588684%, 58.822632%, 90.194702%)" fill-opacity="1" stroke-width="0.09962" stroke-linecap="butt" stroke-linejoin="miter" stroke="rgb(0%, 0%, 0%)" stroke-opacity="1" stroke-miterlimit="10" d="M 567.134594 -23.3435 L 590.380688 -23.3435 L 590.380688 -0.101313 L 567.134594 -0.101313 Z M 567.134594 -23.3435 " transform="matrix(1, 0, 0, -1, 74.299, 153.469)"/>
<g fill="rgb(0%, 0%, 0%)" fill-opacity="1">
<use xlink:href="#glyph-5-5" x="646.279" y="167.438"/>
<use xlink:href="#glyph-5-7" x="650.792443" y="167.438"/>
<use xlink:href="#glyph-5-4" x="655.305887" y="167.438"/>
</g>
<path fill-rule="nonzero" fill="rgb(70.588684%, 58.822632%, 90.194702%)" fill-opacity="1" stroke-width="0.09962" stroke-linecap="butt" stroke-linejoin="miter" stroke="rgb(0%, 0%, 0%)" stroke-opacity="1" stroke-miterlimit="10" d="M 590.48225 -23.3435 L 613.724438 -23.3435 L 613.724438 -0.101313 L 590.48225 -0.101313 Z M 590.48225 -23.3435 " transform="matrix(1, 0, 0, -1, 74.299, 153.469)"/>
<g fill="rgb(0%, 0%, 0%)" fill-opacity="1">
<use xlink:href="#glyph-5-6" x="669.623" y="167.438"/>
<use xlink:href="#glyph-5-8" x="674.136443" y="167.438"/>
<use xlink:href="#glyph-5-2" x="678.649887" y="167.438"/>
</g>
<path fill-rule="nonzero" fill="rgb(70.588684%, 58.822632%, 90.194702%)" fill-opacity="1" stroke-width="0.09962" stroke-linecap="butt" stroke-linejoin="miter" stroke="rgb(0%, 0%, 0%)" stroke-opacity="1" stroke-miterlimit="10" d="M 726.98225 0.00025 L 750.224438 0.00025 L 750.224438 23.246344 L 726.98225 23.246344 Z M 726.98225 0.00025 " transform="matrix(1, 0, 0, -1, 74.299, 153.469)"/>
<g fill="rgb(0%, 0%, 0%)" fill-opacity="1">
<use xlink:href="#glyph-5-0" x="808.379" y="144.094"/>
<use xlink:href="#glyph-5-1" x="812.892443" y="144.094"/>
</g>
<path fill-rule="nonzero" fill="rgb(70.588684%, 58.822632%, 90.194702%)" fill-opacity="1" stroke-width="0.09962" stroke-linecap="butt" stroke-linejoin="miter" stroke="rgb(0%, 0%, 0%)" stroke-opacity="1" stroke-miterlimit="10" d="M 750.326 0.00025 L 773.568188 0.00025 L 773.568188 23.246344 L 750.326 23.246344 Z M 750.326 0.00025 " transform="matrix(1, 0, 0, -1, 74.299, 153.469)"/>
<g fill="rgb(0%, 0%, 0%)" fill-opacity="1">
<use xlink:href="#glyph-5-2" x="831.723" y="144.094"/>
<use xlink:href="#glyph-5-0" x="836.236443" y="144.094"/>
</g>
<path fill-rule="nonzero" fill="rgb(70.588684%, 58.822632%, 90.194702%)" fill-opacity="1" stroke-width="0.09962" stroke-linecap="butt" stroke-linejoin="miter" stroke="rgb(0%, 0%, 0%)" stroke-opacity="1" stroke-miterlimit="10" d="M 773.66975 0.00025 L 796.915844 0.00025 L 796.915844 23.246344 L 773.66975 23.246344 Z M 773.66975 0.00025 " transform="matrix(1, 0, 0, -1, 74.299, 153.469)"/>
<g fill="rgb(0%, 0%, 0%)" fill-opacity="1">
<use xlink:href="#glyph-5-3" x="852.81" y="144.094"/>
<use xlink:href="#glyph-5-3" x="857.323443" y="144.094"/>
<use xlink:href="#glyph-5-4" x="861.836887" y="144.094"/>
</g>
<path fill-rule="nonzero" fill="rgb(70.588684%, 58.822632%, 90.194702%)" fill-opacity="1" stroke-width="0.09962" stroke-linecap="butt" stroke-linejoin="miter" stroke="rgb(0%, 0%, 0%)" stroke-opacity="1" stroke-miterlimit="10" d="M 797.0135 0.00025 L 820.259594 0.00025 L 820.259594 23.246344 L 797.0135 23.246344 Z M 797.0135 0.00025 " transform="matrix(1, 0, 0, -1, 74.299, 153.469)"/>
<g fill="rgb(0%, 0%, 0%)" fill-opacity="1">
<use xlink:href="#glyph-5-3" x="876.154" y="144.094"/>
<use xlink:href="#glyph-5-5" x="880.667443" y="144.094"/>
<use xlink:href="#glyph-5-6" x="885.180887" y="144.094"/>
</g>
<path fill-rule="nonzero" fill="rgb(70.588684%, 58.822632%, 90.194702%)" fill-opacity="1" stroke-width="0.09962" stroke-linecap="butt" stroke-linejoin="miter" stroke="rgb(0%, 0%, 0%)" stroke-opacity="1" stroke-miterlimit="10" d="M 726.98225 -23.3435 L 750.224438 -23.3435 L 750.224438 -0.101313 L 726.98225 -0.101313 Z M 726.98225 -23.3435 " transform="matrix(1, 0, 0, -1, 74.299, 153.469)"/>
<g fill="rgb(0%, 0%, 0%)" fill-opacity="1">
<use xlink:href="#glyph-5-1" x="806.122" y="167.438"/>
<use xlink:href="#glyph-5-3" x="810.635443" y="167.438"/>
<use xlink:href="#glyph-5-6" x="815.148887" y="167.438"/>
</g>
<path fill-rule="nonzero" fill="rgb(70.588684%, 58.822632%, 90.194702%)" fill-opacity="1" stroke-width="0.09962" stroke-linecap="butt" stroke-linejoin="miter" stroke="rgb(0%, 0%, 0%)" stroke-opacity="1" stroke-miterlimit="10" d="M 750.326 -23.3435 L 773.568188 -23.3435 L 773.568188 -0.101313 L 750.326 -0.101313 Z M 750.326 -23.3435 " transform="matrix(1, 0, 0, -1, 74.299, 153.469)"/>
<g fill="rgb(0%, 0%, 0%)" fill-opacity="1">
<use xlink:href="#glyph-5-5" x="829.466" y="167.438"/>
<use xlink:href="#glyph-5-4" x="833.979443" y="167.438"/>
<use xlink:href="#glyph-5-1" x="838.492887" y="167.438"/>
</g>
<path fill-rule="nonzero" fill="rgb(70.588684%, 58.822632%, 90.194702%)" fill-opacity="1" stroke-width="0.09962" stroke-linecap="butt" stroke-linejoin="miter" stroke="rgb(0%, 0%, 0%)" stroke-opacity="1" stroke-miterlimit="10" d="M 773.66975 -23.3435 L 796.915844 -23.3435 L 796.915844 -0.101313 L 773.66975 -0.101313 Z M 773.66975 -23.3435 " transform="matrix(1, 0, 0, -1, 74.299, 153.469)"/>
<g fill="rgb(0%, 0%, 0%)" fill-opacity="1">
<use xlink:href="#glyph-5-5" x="852.81" y="167.438"/>
<use xlink:href="#glyph-5-7" x="857.323443" y="167.438"/>
<use xlink:href="#glyph-5-4" x="861.836887" y="167.438"/>
</g>
<path fill-rule="nonzero" fill="rgb(70.588684%, 58.822632%, 90.194702%)" fill-opacity="1" stroke-width="0.09962" stroke-linecap="butt" stroke-linejoin="miter" stroke="rgb(0%, 0%, 0%)" stroke-opacity="1" stroke-miterlimit="10" d="M 797.0135 -23.3435 L 820.259594 -23.3435 L 820.259594 -0.101313 L 797.0135 -0.101313 Z M 797.0135 -23.3435 " transform="matrix(1, 0, 0, -1, 74.299, 153.469)"/>
<g fill="rgb(0%, 0%, 0%)" fill-opacity="1">
<use xlink:href="#glyph-5-6" x="876.154" y="167.438"/>
<use xlink:href="#glyph-5-8" x="880.667443" y="167.438"/>
<use xlink:href="#glyph-5-2" x="885.180887" y="167.438"/>
</g>
<path fill-rule="nonzero" fill="rgb(70.588684%, 58.822632%, 90.194702%)" fill-opacity="1" stroke-width="0.09962" stroke-linecap="butt" stroke-linejoin="miter" stroke="rgb(0%, 0%, 0%)" stroke-opacity="1" stroke-miterlimit="10" d="M 520.447094 -206.534906 L 543.693188 -206.534906 L 543.693188 -183.288813 L 520.447094 -183.288813 Z M 520.447094 -206.534906 " transform="matrix(1, 0, 0, -1, 74.299, 153.469)"/>
<g fill="rgb(0%, 0%, 0%)" fill-opacity="1">
<use xlink:href="#glyph-5-0" x="601.848" y="350.625"/>
<use xlink:href="#glyph-5-1" x="606.361443" y="350.625"/>
</g>
<path fill-rule="nonzero" fill="rgb(70.588684%, 58.822632%, 90.194702%)" fill-opacity="1" stroke-width="0.09962" stroke-linecap="butt" stroke-linejoin="miter" stroke="rgb(0%, 0%, 0%)" stroke-opacity="1" stroke-miterlimit="10" d="M 543.790844 -206.534906 L 567.036938 -206.534906 L 567.036938 -183.288813 L 543.790844 -183.288813 Z M 543.790844 -206.534906 " transform="matrix(1, 0, 0, -1, 74.299, 153.469)"/>
<g fill="rgb(0%, 0%, 0%)" fill-opacity="1">
<use xlink:href="#glyph-5-2" x="625.192" y="350.625"/>
<use xlink:href="#glyph-5-0" x="629.705443" y="350.625"/>
</g>
<path fill-rule="nonzero" fill="rgb(70.588684%, 58.822632%, 90.194702%)" fill-opacity="1" stroke-width="0.09962" stroke-linecap="butt" stroke-linejoin="miter" stroke="rgb(0%, 0%, 0%)" stroke-opacity="1" stroke-miterlimit="10" d="M 567.134594 -206.534906 L 590.380688 -206.534906 L 590.380688 -183.288813 L 567.134594 -183.288813 Z M 567.134594 -206.534906 " transform="matrix(1, 0, 0, -1, 74.299, 153.469)"/>
<g fill="rgb(0%, 0%, 0%)" fill-opacity="1">
<use xlink:href="#glyph-5-3" x="646.279" y="350.625"/>
<use xlink:href="#glyph-5-3" x="650.792443" y="350.625"/>
<use xlink:href="#glyph-5-4" x="655.305887" y="350.625"/>
</g>
<path fill-rule="nonzero" fill="rgb(70.588684%, 58.822632%, 90.194702%)" fill-opacity="1" stroke-width="0.09962" stroke-linecap="butt" stroke-linejoin="miter" stroke="rgb(0%, 0%, 0%)" stroke-opacity="1" stroke-miterlimit="10" d="M 590.48225 -206.534906 L 613.724438 -206.534906 L 613.724438 -183.288813 L 590.48225 -183.288813 Z M 590.48225 -206.534906 " transform="matrix(1, 0, 0, -1, 74.299, 153.469)"/>
<g fill="rgb(0%, 0%, 0%)" fill-opacity="1">
<use xlink:href="#glyph-5-3" x="669.623" y="350.625"/>
<use xlink:href="#glyph-5-5" x="674.136443" y="350.625"/>
<use xlink:href="#glyph-5-6" x="678.649887" y="350.625"/>
</g>
<path fill-rule="nonzero" fill="rgb(70.588684%, 58.822632%, 90.194702%)" fill-opacity="1" stroke-width="0.09962" stroke-linecap="butt" stroke-linejoin="miter" stroke="rgb(0%, 0%, 0%)" stroke-opacity="1" stroke-miterlimit="10" d="M 520.447094 -229.878656 L 543.693188 -229.878656 L 543.693188 -206.632563 L 520.447094 -206.632563 Z M 520.447094 -229.878656 " transform="matrix(1, 0, 0, -1, 74.299, 153.469)"/>
<g fill="rgb(0%, 0%, 0%)" fill-opacity="1">
<use xlink:href="#glyph-5-1" x="599.591" y="373.969"/>
<use xlink:href="#glyph-5-3" x="604.104443" y="373.969"/>
<use xlink:href="#glyph-5-6" x="608.617887" y="373.969"/>
</g>
<path fill-rule="nonzero" fill="rgb(70.588684%, 58.822632%, 90.194702%)" fill-opacity="1" stroke-width="0.09962" stroke-linecap="butt" stroke-linejoin="miter" stroke="rgb(0%, 0%, 0%)" stroke-opacity="1" stroke-miterlimit="10" d="M 543.790844 -229.878656 L 567.036938 -229.878656 L 567.036938 -206.632563 L 543.790844 -206.632563 Z M 543.790844 -229.878656 " transform="matrix(1, 0, 0, -1, 74.299, 153.469)"/>
<g fill="rgb(0%, 0%, 0%)" fill-opacity="1">
<use xlink:href="#glyph-5-5" x="622.935" y="373.969"/>
<use xlink:href="#glyph-5-4" x="627.448443" y="373.969"/>
<use xlink:href="#glyph-5-1" x="631.961887" y="373.969"/>
</g>
<path fill-rule="nonzero" fill="rgb(70.588684%, 58.822632%, 90.194702%)" fill-opacity="1" stroke-width="0.09962" stroke-linecap="butt" stroke-linejoin="miter" stroke="rgb(0%, 0%, 0%)" stroke-opacity="1" stroke-miterlimit="10" d="M 567.134594 -229.878656 L 590.380688 -229.878656 L 590.380688 -206.632563 L 567.134594 -206.632563 Z M 567.134594 -229.878656 " transform="matrix(1, 0, 0, -1, 74.299, 153.469)"/>
<g fill="rgb(0%, 0%, 0%)" fill-opacity="1">
<use xlink:href="#glyph-5-5" x="646.279" y="373.969"/>
<use xlink:href="#glyph-5-7" x="650.792443" y="373.969"/>
<use xlink:href="#glyph-5-4" x="655.305887" y="373.969"/>
</g>
<path fill-rule="nonzero" fill="rgb(70.588684%, 58.822632%, 90.194702%)" fill-opacity="1" stroke-width="0.09962" stroke-linecap="butt" stroke-linejoin="miter" stroke="rgb(0%, 0%, 0%)" stroke-opacity="1" stroke-miterlimit="10" d="M 590.48225 -229.878656 L 613.724438 -229.878656 L 613.724438 -206.632563 L 590.48225 -206.632563 Z M 590.48225 -229.878656 " transform="matrix(1, 0, 0, -1, 74.299, 153.469)"/>
<g fill="rgb(0%, 0%, 0%)" fill-opacity="1">
<use xlink:href="#glyph-5-6" x="669.623" y="373.969"/>
<use xlink:href="#glyph-5-8" x="674.136443" y="373.969"/>
<use xlink:href="#glyph-5-2" x="678.649887" y="373.969"/>
</g>
<path fill-rule="nonzero" fill="rgb(70.588684%, 58.822632%, 90.194702%)" fill-opacity="1" stroke-width="0.09962" stroke-linecap="butt" stroke-linejoin="miter" stroke="rgb(0%, 0%, 0%)" stroke-opacity="1" stroke-miterlimit="10" d="M 726.98225 -206.534906 L 750.224438 -206.534906 L 750.224438 -183.288813 L 726.98225 -183.288813 Z M 726.98225 -206.534906 " transform="matrix(1, 0, 0, -1, 74.299, 153.469)"/>
<g fill="rgb(0%, 0%, 0%)" fill-opacity="1">
<use xlink:href="#glyph-5-0" x="808.379" y="350.625"/>
<use xlink:href="#glyph-5-1" x="812.892443" y="350.625"/>
</g>
<path fill-rule="nonzero" fill="rgb(70.588684%, 58.822632%, 90.194702%)" fill-opacity="1" stroke-width="0.09962" stroke-linecap="butt" stroke-linejoin="miter" stroke="rgb(0%, 0%, 0%)" stroke-opacity="1" stroke-miterlimit="10" d="M 750.326 -206.534906 L 773.568188 -206.534906 L 773.568188 -183.288813 L 750.326 -183.288813 Z M 750.326 -206.534906 " transform="matrix(1, 0, 0, -1, 74.299, 153.469)"/>
<g fill="rgb(0%, 0%, 0%)" fill-opacity="1">
<use xlink:href="#glyph-5-2" x="831.723" y="350.625"/>
<use xlink:href="#glyph-5-0" x="836.236443" y="350.625"/>
</g>
<path fill-rule="nonzero" fill="rgb(70.588684%, 58.822632%, 90.194702%)" fill-opacity="1" stroke-width="0.09962" stroke-linecap="butt" stroke-linejoin="miter" stroke="rgb(0%, 0%, 0%)" stroke-opacity="1" stroke-miterlimit="10" d="M 773.66975 -206.534906 L 796.915844 -206.534906 L 796.915844 -183.288813 L 773.66975 -183.288813 Z M 773.66975 -206.534906 " transform="matrix(1, 0, 0, -1, 74.299, 153.469)"/>
<g fill="rgb(0%, 0%, 0%)" fill-opacity="1">
<use xlink:href="#glyph-5-3" x="852.81" y="350.625"/>
<use xlink:href="#glyph-5-3" x="857.323443" y="350.625"/>
<use xlink:href="#glyph-5-4" x="861.836887" y="350.625"/>
</g>
<path fill-rule="nonzero" fill="rgb(70.588684%, 58.822632%, 90.194702%)" fill-opacity="1" stroke-width="0.09962" stroke-linecap="butt" stroke-linejoin="miter" stroke="rgb(0%, 0%, 0%)" stroke-opacity="1" stroke-miterlimit="10" d="M 797.0135 -206.534906 L 820.259594 -206.534906 L 820.259594 -183.288813 L 797.0135 -183.288813 Z M 797.0135 -206.534906 " transform="matrix(1, 0, 0, -1, 74.299, 153.469)"/>
<g fill="rgb(0%, 0%, 0%)" fill-opacity="1">
<use xlink:href="#glyph-5-3" x="876.154" y="350.625"/>
<use xlink:href="#glyph-5-5" x="880.667443" y="350.625"/>
<use xlink:href="#glyph-5-6" x="885.180887" y="350.625"/>
</g>
<path fill-rule="nonzero" fill="rgb(70.588684%, 58.822632%, 90.194702%)" fill-opacity="1" stroke-width="0.09962" stroke-linecap="butt" stroke-linejoin="miter" stroke="rgb(0%, 0%, 0%)" stroke-opacity="1" stroke-miterlimit="10" d="M 726.98225 -229.878656 L 750.224438 -229.878656 L 750.224438 -206.632563 L 726.98225 -206.632563 Z M 726.98225 -229.878656 " transform="matrix(1, 0, 0, -1, 74.299, 153.469)"/>
<g fill="rgb(0%, 0%, 0%)" fill-opacity="1">
<use xlink:href="#glyph-5-1" x="806.122" y="373.969"/>
<use xlink:href="#glyph-5-3" x="810.635443" y="373.969"/>
<use xlink:href="#glyph-5-6" x="815.148887" y="373.969"/>
</g>
<path fill-rule="nonzero" fill="rgb(70.588684%, 58.822632%, 90.194702%)" fill-opacity="1" stroke-width="0.09962" stroke-linecap="butt" stroke-linejoin="miter" stroke="rgb(0%, 0%, 0%)" stroke-opacity="1" stroke-miterlimit="10" d="M 750.326 -229.878656 L 773.568188 -229.878656 L 773.568188 -206.632563 L 750.326 -206.632563 Z M 750.326 -229.878656 " transform="matrix(1, 0, 0, -1, 74.299, 153.469)"/>
<g fill="rgb(0%, 0%, 0%)" fill-opacity="1">
<use xlink:href="#glyph-5-5" x="829.466" y="373.969"/>
<use xlink:href="#glyph-5-4" x="833.979443" y="373.969"/>
<use xlink:href="#glyph-5-1" x="838.492887" y="373.969"/>
</g>
<path fill-rule="nonzero" fill="rgb(70.588684%, 58.822632%, 90.194702%)" fill-opacity="1" stroke-width="0.09962" stroke-linecap="butt" stroke-linejoin="miter" stroke="rgb(0%, 0%, 0%)" stroke-opacity="1" stroke-miterlimit="10" d="M 773.66975 -229.878656 L 796.915844 -229.878656 L 796.915844 -206.632563 L 773.66975 -206.632563 Z M 773.66975 -229.878656 " transform="matrix(1, 0, 0, -1, 74.299, 153.469)"/>
<g fill="rgb(0%, 0%, 0%)" fill-opacity="1">
<use xlink:href="#glyph-5-5" x="852.81" y="373.969"/>
<use xlink:href="#glyph-5-7" x="857.323443" y="373.969"/>
<use xlink:href="#glyph-5-4" x="861.836887" y="373.969"/>
</g>
<path fill-rule="nonzero" fill="rgb(70.588684%, 58.822632%, 90.194702%)" fill-opacity="1" stroke-width="0.09962" stroke-linecap="butt" stroke-linejoin="miter" stroke="rgb(0%, 0%, 0%)" stroke-opacity="1" stroke-miterlimit="10" d="M 797.0135 -229.878656 L 820.259594 -229.878656 L 820.259594 -206.632563 L 797.0135 -206.632563 Z M 797.0135 -229.878656 " transform="matrix(1, 0, 0, -1, 74.299, 153.469)"/>
<g fill="rgb(0%, 0%, 0%)" fill-opacity="1">
<use xlink:href="#glyph-5-6" x="876.154" y="373.969"/>
<use xlink:href="#glyph-5-8" x="880.667443" y="373.969"/>
<use xlink:href="#glyph-5-2" x="885.180887" y="373.969"/>
</g>
<path fill-rule="nonzero" fill="rgb(0%, 100%, 0%)" fill-opacity="1" stroke-width="0.3985" stroke-linecap="butt" stroke-linejoin="miter" stroke="rgb(0%, 0%, 0%)" stroke-opacity="1" stroke-miterlimit="10" d="M 613.509594 -138.698969 L 726.896313 -138.698969 L 726.896313 -67.831781 L 613.509594 -67.831781 Z M 613.509594 -138.698969 " transform="matrix(1, 0, 0, -1, 74.299, 153.469)"/>
<g fill="rgb(0%, 0%, 0%)" fill-opacity="1">
<use xlink:href="#glyph-6-0" x="716.459" y="252.971"/>
<use xlink:href="#glyph-6-1" x="725.120484" y="252.971"/>
<use xlink:href="#glyph-6-1" x="728.302539" y="252.971"/>
</g>
<path fill="none" stroke-width="0.398" stroke-linecap="butt" stroke-linejoin="miter" stroke="rgb(0%, 0%, 0%)" stroke-opacity="1" stroke-miterlimit="10" d="M 0.00178125 -0.0014375 L 3.435375 -0.0014375 " transform="matrix(1, 0, 0, -1, 732.174, 252.772)"/>
<g fill="rgb(0%, 0%, 0%)" fill-opacity="1">
<use xlink:href="#glyph-6-2" x="735.611" y="252.971"/>
<use xlink:href="#glyph-6-3" x="744.203742" y="252.971"/>
<use xlink:href="#glyph-6-4" x="749.455029" y="252.971"/>
<use xlink:href="#glyph-6-5" x="755.820134" y="252.971"/>
<use xlink:href="#glyph-6-6" x="762.185239" y="252.971"/>
<use xlink:href="#glyph-6-3" x="767.277124" y="252.971"/>
</g>
<g fill="rgb(0%, 0%, 0%)" fill-opacity="1">
<use xlink:href="#glyph-6-7" x="727.01" y="264.926"/>
<use xlink:href="#glyph-6-8" x="731.465275" y="264.926"/>
<use xlink:href="#glyph-6-9" x="737.83038" y="264.926"/>
<use xlink:href="#glyph-6-10" x="746.644292" y="264.926"/>
<use xlink:href="#glyph-6-11" x="757.520463" y="264.926"/>
</g>
</svg>
